<?xml version="1.0" encoding="UTF-8"?>
<svg width="18px" height="12px" viewBox="0 0 18 12" version="1.1" xmlns="http://www.w3.org/2000/svg" xmlns:xlink="http://www.w3.org/1999/xlink">
    <!-- Generator: Sketch 48.2 (47327) - http://www.bohemiancoding.com/sketch -->
    <title>Message Icon</title>
    <desc>Created with Sketch.</desc>
    <defs></defs>
    <g id="Create-Account-step-2" stroke="none" stroke-width="1" fill="none" fill-rule="evenodd" transform="translate(-415.000000, -378.000000)">
        <g id="Group" transform="translate(399.000000, 268.000000)" fill="#B9BED1">
            <g id="Input-Fields-Styles-/-Completed-Input-Field" transform="translate(0.000000, 70.000000)">
                <path d="M32.0003128,52.001 L18.0093128,52.001 C16.9053128,52.001 16.0103128,51.105 16.0103128,50.001 L16.0103128,43.001 C16.0103128,42.23 15.9023128,40.646 16.3853128,40.376 C16.4663128,40.686 17.2913128,41.845 17.5223128,42.091 L23.4923128,47.426 C23.9073128,47.866 24.4623128,47.918 25.0053128,47.876 C25.5643128,47.916 26.1363128,47.682 26.5643128,47.254 L32.7533128,42.062 C32.9523128,41.862 33.5373128,40.625 33.6243128,40.376 C33.9933128,40.852 33.9993128,42.328 33.9993128,43.001 L33.9993128,50.001 C33.9993128,51.105 33.1043128,52.001 32.0003128,52.001 Z M32.7528128,41.061 L26.5648128,46.254 C26.1368128,46.682 25.5638128,47.167 25.0048128,47.125 C24.4628128,47.168 23.9068128,46.865 23.4928128,46.426 L17.5218128,41.09 C17.2318128,40.783 17.0888128,40.398 17.0208128,40 L25.0048128,40 L33.2698128,40 C33.1988128,40.387 33.0518128,40.763 32.7528128,41.061 Z" id="Message-Icon"></path>
            </g>
        </g>
    </g>
</svg>