<?xml version="1.0" encoding="UTF-8"?>
<svg width="19px" height="19px" viewBox="0 0 19 19" version="1.1" xmlns="http://www.w3.org/2000/svg" xmlns:xlink="http://www.w3.org/1999/xlink">
    <!-- Generator: Sketch 48.2 (47327) - http://www.bohemiancoding.com/sketch -->
    <title>instagram</title>
    <desc>Created with Sketch.</desc>
    <defs></defs>
    <g id="Edit-Profile-Add-Social-(Desktop)" stroke="none" stroke-width="1" fill="none" fill-rule="evenodd" transform="translate(-414.000000, -600.000000)">
        <g id="Group-13" transform="translate(74.000000, 417.000000)" fill="#00E2AA">
            <g id="Group-10" transform="translate(224.000000, 103.000000)">
                <g id="Rounded-Button" transform="translate(101.000000, 68.000000)">
                    <path d="M24.3342083,12 C21.7994042,12 21.4812897,12.0110834 20.4857238,12.0563895 C19.4921023,12.10189 18.8138731,12.2591971 18.2204224,12.4900051 C17.6065549,12.7283965 17.0858273,13.0472887 16.5670441,13.5662663 C16.047872,14.0850495 15.7289798,14.6057771 15.4898107,15.2194502 C15.2584194,15.8130953 15.1009177,16.491519 15.056195,17.4847516 C15.0116668,18.4803175 15,18.7986264 15,21.3334306 C15,23.8682347 15.0112779,24.1853769 15.0563895,25.1809429 C15.1020844,26.1745643 15.2593916,26.8527936 15.4900051,27.4462442 C15.7285909,28.0601117 16.0474831,28.5808394 16.5664608,29.0996226 C17.0850495,29.6187946 17.6057771,29.9384646 18.2192558,30.176856 C18.8130953,30.407664 19.491519,30.5649712 20.484946,30.6104716 C21.4805119,30.6557777 21.7984319,30.6668611 24.3330417,30.6668611 C26.8680403,30.6668611 27.1851825,30.6557777 28.1807484,30.6104716 C29.1743699,30.5649712 29.8533769,30.407664 30.4472165,30.176856 C31.0608895,29.9384646 31.5808394,29.6187946 32.0994281,29.0996226 C32.6186002,28.5808394 32.9374924,28.0601117 33.1766616,27.4464387 C33.4061084,26.8527936 33.56361,26.1743699 33.6102772,25.1811373 C33.6549999,24.1855714 33.6666667,23.8682347 33.6666667,21.3334306 C33.6666667,18.7986264 33.6549999,18.4805119 33.6102772,17.484946 C33.56361,16.4913246 33.4061084,15.8130953 33.1766616,15.2196446 C32.9374924,14.6057771 32.6186002,14.0850495 32.0994281,13.5662663 C31.580256,13.0470942 31.061084,12.728202 30.4466331,12.4900051 C29.8516269,12.2591971 29.1730087,12.10189 28.1793873,12.0563895 C27.1838214,12.0110834 26.8668736,12 24.3312916,12 L24.3342083,12 Z M23.4969218,13.681962 C23.7454244,13.6815731 24.0227051,13.681962 24.3342083,13.681962 C26.8262343,13.681962 27.1215985,13.6909065 28.1056921,13.7356292 C29.0157016,13.7772407 29.5095956,13.9292979 29.838599,14.0570492 C30.2741591,14.2262176 30.5846901,14.428442 30.9111657,14.755112 C31.2378358,15.0817821 31.4400601,15.3928965 31.6096175,15.8284565 C31.7373688,16.1570711 31.8896204,16.6509651 31.9310375,17.5609746 C31.9757602,18.5448737 31.9854825,18.8404324 31.9854825,21.3312916 C31.9854825,23.8221509 31.9757602,24.1177096 31.9310375,25.1016087 C31.8894259,26.0116182 31.7373688,26.5055122 31.6096175,26.8341267 C31.440449,27.2696868 31.2378358,27.579829 30.9111657,27.9063046 C30.5844957,28.2329746 30.2743536,28.435199 29.838599,28.6043674 C29.5099845,28.7327021 29.0157016,28.8843703 28.1056921,28.9259819 C27.1217929,28.9707046 26.8262343,28.9804269 24.3342083,28.9804269 C21.8419879,28.9804269 21.5466237,28.9707046 20.5627246,28.9259819 C19.6527151,28.8839814 19.1588211,28.7319243 18.8296232,28.604173 C18.3940631,28.4350045 18.0829488,28.2327802 17.7562787,27.9061101 C17.4296086,27.5794401 17.2273843,27.2691035 17.057827,26.833349 C16.9300757,26.5047344 16.7778241,26.0108404 16.736407,25.1008309 C16.6916843,24.1169318 16.6827398,23.8213731 16.6827398,21.3289583 C16.6827398,18.8365434 16.6916843,18.5425404 16.736407,17.5586412 C16.7780185,16.6486318 16.9300757,16.1547377 17.057827,15.8257343 C17.2269954,15.3901742 17.4296086,15.0790599 17.7562787,14.7523898 C18.0829488,14.4257197 18.3940631,14.2234954 18.8296232,14.0539381 C19.1586267,13.9256034 19.6527151,13.7739351 20.5627246,13.7321292 C21.4237336,13.6932399 21.7574037,13.6815731 23.4969218,13.6796286 L23.4969218,13.681962 Z M29.3163158,15.2317003 C28.697976,15.2317003 28.1963041,15.7327889 28.1963041,16.3513231 C28.1963041,16.9696629 28.697976,17.4713348 29.3163158,17.4713348 C29.9346556,17.4713348 30.4363275,16.9696629 30.4363275,16.3513231 C30.4363275,15.7329833 29.9346556,15.2313114 29.3163158,15.2313114 L29.3163158,15.2317003 Z M24.3342083,16.5403251 C21.6872085,16.5403251 19.5411029,18.6864308 19.5411029,21.3334306 C19.5411029,23.9804304 21.6872085,26.1255638 24.3342083,26.1255638 C26.9812081,26.1255638 29.126536,23.9804304 29.126536,21.3334306 C29.126536,18.6864308 26.9810137,16.5403251 24.3340139,16.5403251 L24.3342083,16.5403251 Z M24.3342083,18.222287 C26.0523374,18.222287 27.4453519,19.6151071 27.4453519,21.3334306 C27.4453519,23.0515596 26.0523374,24.4445741 24.3342083,24.4445741 C22.6158849,24.4445741 21.2230648,23.0515596 21.2230648,21.3334306 C21.2230648,19.6151071 22.6158849,18.222287 24.3342083,18.222287 L24.3342083,18.222287 Z" id="instagram"></path>
                </g>
            </g>
        </g>
    </g>
</svg>