<?xml version="1.0" encoding="UTF-8"?>
<svg width="17px" height="14px" viewBox="0 0 17 14" version="1.1" xmlns="http://www.w3.org/2000/svg" xmlns:xlink="http://www.w3.org/1999/xlink">
    <!-- Generator: Sketch 48.2 (47327) - http://www.bohemiancoding.com/sketch -->
    <title>Shape</title>
    <desc>Created with Sketch.</desc>
    <defs></defs>
    <g id="Edit-Profile-Add-Social-(Desktop)" stroke="none" stroke-width="1" fill="none" fill-rule="evenodd" transform="translate(-739.000000, -534.000000)">
        <g id="Group-13" transform="translate(74.000000, 417.000000)" fill="#00E2AA">
            <g id="Group-10" transform="translate(224.000000, 103.000000)">
                <g id="Rounded-Button" transform="translate(426.000000, 0.000000)">
                    <path d="M23.25447,17.7242192 L23.2913204,18.3297587 L22.6771485,18.255611 C20.4415628,17.9713782 18.4884963,17.0074582 16.8302322,15.3885669 L16.0195253,14.5853003 L15.8107069,15.1784818 C15.3685031,16.5007823 15.6510222,17.8972305 16.57228,18.8364346 C17.0636175,19.3554684 16.9530666,19.4296161 16.1055094,19.1206674 C15.8107069,19.0218038 15.5527547,18.9476561 15.5281878,18.98473 C15.4422038,19.0712356 15.7370063,20.1958089 15.9703916,20.6406951 C16.2897609,21.2585925 16.9407831,21.864132 17.6532225,22.2225125 L18.255111,22.5067453 L17.5426716,22.5191033 C16.8547991,22.5191033 16.8302322,22.5314612 16.9039328,22.7909781 C17.1496016,23.5942448 18.1199931,24.4469432 19.2009357,24.8176817 L19.9625088,25.0771986 L19.2992032,25.472653 C18.3165281,26.0411186 17.161885,26.3624253 16.0072419,26.3871412 C15.4544872,26.3994991 15,26.4489309 15,26.4860048 C15,26.6095842 16.4985794,27.3016294 17.3707035,27.5735042 C19.9870757,28.3767709 23.0947854,28.0307483 25.4286385,26.659016 C27.0869026,25.6827381 28.7451666,23.7425402 29.5190232,21.864132 C29.9366601,20.8631381 30.354297,19.0341618 30.354297,18.1567474 C30.354297,17.5882818 30.3911473,17.5141341 31.0790198,16.8344469 C31.4843732,16.4389926 31.8651598,16.0064644 31.9388604,15.8828849 C32.0616948,15.6480838 32.0494114,15.6480838 31.422956,15.858169 C30.3788638,16.2289074 30.2314626,16.1794756 30.747367,15.6233679 C31.1281535,15.2279136 31.5826407,14.5111526 31.5826407,14.3010674 C31.5826407,14.2639936 31.3983892,14.3257833 31.1895707,14.4370049 C30.9684688,14.5605844 30.4771313,14.7459536 30.1086282,14.8571751 L29.4453226,15.0672603 L28.8434341,14.659448 C28.5117813,14.4370049 28.0450107,14.1898459 27.799342,14.1156982 C27.1728866,13.9426869 26.2147785,13.9674028 25.6497404,14.16513 C24.1143107,14.7212377 23.1439191,16.1547597 23.25447,17.7242192 Z" id="Shape"></path>
                </g>
            </g>
        </g>
    </g>
</svg>