<?xml version="1.0" encoding="UTF-8"?>
<svg width="97px" height="151px" viewBox="0 0 97 151" version="1.1" xmlns="http://www.w3.org/2000/svg" xmlns:xlink="http://www.w3.org/1999/xlink">
    <!-- Generator: Sketch 48.2 (47327) - http://www.bohemiancoding.com/sketch -->
    <title>Knowledge</title>
    <desc>Created with Sketch.</desc>
    <defs>
        <path d="M40.1922474,0 C34.8049019,0 30.0909745,2.89914096 27.500392,7.23299416 C24.9098094,2.89914096 20.1950981,0 14.8077526,0 C6.6291318,0 0,6.67947497 0,14.9192639 C0,19.2067593 1.79839503,23.0695071 4.67316162,25.7907453 L25.8689796,46.2293523 C26.2578217,46.7000615 26.841085,47 27.4949043,47 C28.1005103,47 28.6457517,46.7412684 29.031458,46.3280111 L50.333894,25.7907453 C53.2027809,23.0699033 55,19.2071556 55,14.9192639 C55,6.67947497 48.3708682,0 40.1922474,0 Z" id="path-1"></path>
    </defs>
    <g id="Artboard" stroke="none" stroke-width="1" fill="none" fill-rule="evenodd" transform="translate(-58.000000, -47.000000)">
        <g id="Knowledge" transform="translate(58.000000, 47.000000)">
            <path d="M49,4.76252116 C27.3751343,4.76252116 17.562051,15.3691617 10.3062971,0 C10.3062971,0 -9.45131216,34.6764005 11.9770341,53.4421941 C22.235991,62.4264373 38.0812534,65.0399766 49,57.8816573 L49,4.76252116 Z" id="Shape" fill="#00E2AA" fill-rule="nonzero"></path>
            <path d="M48.0006443,4.76252116 C69.6252135,4.76252116 79.4381624,15.3691617 86.6938168,0 C86.6938168,0 106.451155,34.6764005 85.0231027,53.4421941 C74.7642864,62.4264373 58.9185969,65.0399766 48.0006443,57.8816573 L48,57.8816573 L48.0006443,4.76252116 Z" id="Shape" fill="#0ACA9B" fill-rule="nonzero"></path>
            <path d="M0,80.3783749 C0,106.62656 46.3612667,149.493385 48,151 L48,32 C21.4863987,32.0264885 0,53.6753623 0,80.3783749 Z" id="Shape" fill="#00E2AA" fill-rule="nonzero"></path>
            <path d="M97,80.3615504 C97,53.6530375 75.0842972,32 48.0496792,32 C48.033991,32 48.0169955,32.0012916 48,32.0012916 L48,150.956084 C48.0307226,150.983855 48.0496792,151 48.0496792,151 C48.0496792,151 97,107.072001 97,80.3615504 Z" id="Shape" fill="#0ACA9B" fill-rule="nonzero"></path>
            <circle id="Oval" fill="#FFFFFF" fill-rule="nonzero" cx="23.5" cy="28.5" r="15.5"></circle>
            <circle id="Oval" fill="#3E4D75" fill-rule="nonzero" cx="24" cy="28" r="10"></circle>
            <circle id="Oval" fill="#FFFFFF" fill-rule="nonzero" cx="18.5" cy="24.5" r="4.5"></circle>
            <circle id="Oval" fill="#FFFFFF" fill-rule="nonzero" cx="74.5" cy="27.5" r="15.5"></circle>
            <circle id="Oval" fill="#353859" fill-rule="nonzero" cx="74" cy="28" r="10"></circle>
            <circle id="Oval" fill="#F8FBFA" fill-rule="nonzero" cx="68.5" cy="23.5" r="4.5"></circle>
            <path d="M41.10316,23.9476802 L46.789305,32.2622573 C47.1219923,32.7492596 47.5603989,32.9947351 48,33 L48,21 C43.0879352,21.0039487 40.4300207,22.9638039 41.10316,23.9476802 Z" id="Shape" fill="#FFBE69" fill-rule="nonzero"></path>
            <path d="M49.2356685,32.2621974 L54.9109216,23.9476645 C55.5827009,22.9624772 52.3740161,21 48.0131137,21 C48.0089412,21 48.0047686,21 48,21 L48,33 C48.4476541,33.0045429 48.8965004,32.7597269 49.2356685,32.2621974 Z" id="Shape" fill="#E9A66B" fill-rule="nonzero"></path>
            <g id="heart" transform="translate(21.000000, 62.000000)">
                <mask id="mask-2" fill="white">
                    <use xlink:href="#path-1"></use>
                </mask>
                <use id="Mask" fill="#F5FFFD" fill-rule="nonzero" xlink:href="#path-1"></use>
                <rect id="Rectangle" fill="#FFFFFF" mask="url(#mask-2)" x="-1.27906977" y="-1.93150685" width="28.7790698" height="50.2191781"></rect>
            </g>
        </g>
    </g>
</svg>