<?xml version="1.0" encoding="UTF-8"?>
<svg width="19px" height="18px" viewBox="0 0 19 18" version="1.1" xmlns="http://www.w3.org/2000/svg" xmlns:xlink="http://www.w3.org/1999/xlink">
    <!-- Generator: Sketch 48.2 (47327) - http://www.bohemiancoding.com/sketch -->
    <title>Snapchat</title>
    <desc>Created with Sketch.</desc>
    <defs></defs>
    <g id="Profile-(Desktop)" stroke="none" stroke-width="1" fill="none" fill-rule="evenodd" transform="translate(-379.000000, -491.000000)">
        <g id="social-icons" transform="translate(371.000000, 480.000000)" fill="#FFFFFF">
            <g id="Snapchat" transform="translate(0.000000, 3.000000)">
                <path d="M17.3896524,8.5 L17.3888435,8.5 C17.3729986,8.5 17.3581052,8.5 17.3439256,8.50018743 C17.2308695,8.50131199 17.045012,8.50309255 17.0283106,8.50327998 C16.6207184,8.50327998 15.8052011,8.55997679 14.9292064,8.94073571 C14.4283525,9.15829215 13.9778409,9.45245957 13.5902334,9.81508488 C13.1281117,10.2471521 12.7516386,10.7798678 12.4714725,11.3986596 C12.0611682,12.304684 12.1585697,13.8307654 12.2367954,15.0571502 L12.2370809,15.0590714 C12.2454554,15.1904112 12.2542582,15.3275612 12.2622996,15.461197 C12.2021077,15.4884208 12.1045159,15.5171441 11.9606738,15.5171441 C11.7292323,15.5171441 11.4540148,15.4442817 11.1428726,15.3007122 C11.0513237,15.2587285 10.9468324,15.2375023 10.8315399,15.2375023 C10.6463011,15.2375023 10.4510223,15.2912003 10.2816284,15.3892717 C10.0685062,15.5125053 9.93080226,15.6866723 9.89340238,15.8797694 C9.86875461,16.0075012 9.86994418,16.259966 10.1547257,16.515992 C10.3113675,16.6569374 10.5414767,16.7869184 10.838487,16.9025143 C10.9164272,16.932737 11.0089277,16.9616008 11.1069001,16.9921983 C11.4468775,17.0986103 11.9614352,17.2593762 12.0956179,17.5703652 C12.1636134,17.7280386 12.1343501,17.9355208 12.008875,18.1862988 C12.0055918,18.1931399 12.0023086,18.1998404 11.9993109,18.2068689 C11.967954,18.2789817 11.6754165,18.9315104 11.0753529,19.6196972 C10.7343764,20.0110458 10.3588073,20.3381068 9.95968487,20.592071 C9.47253472,20.9021229 8.94541523,21.1048257 8.39312458,21.194416 C8.17624332,21.229465 8.02136212,21.4197507 8.03344808,21.6359952 C8.03715952,21.6983148 8.05200528,21.760447 8.07774744,21.8205644 C8.07793777,21.8209392 8.07817568,21.8213141 8.07836601,21.8216421 C8.16606065,22.023642 8.36938089,22.1952319 8.69993686,22.3465796 C9.10386513,22.5313362 9.70797318,22.6867605 10.4953216,22.808354 C10.5351006,22.8828564 10.5764023,23.0700965 10.6049994,23.1982969 C10.6349288,23.3345567 10.666143,23.4746587 10.7106327,23.6234761 C10.7586435,23.7847106 10.883167,23.977386 11.2030645,23.977386 C11.3243048,23.977386 11.4637217,23.9504902 11.6251693,23.9196584 C11.861607,23.8739729 12.1849304,23.8116533 12.588478,23.8116533 C12.8122112,23.8116533 13.0440809,23.831052 13.2774733,23.8692404 C13.7273663,23.9429931 14.1152117,24.212795 14.5639627,24.5252366 C15.2207922,24.9824659 15.9642696,25.5 17.1002078,25.5 C17.131184,25.5 17.1622554,25.499016 17.1929462,25.4969074 C17.2304888,25.4986412 17.2770246,25.5 17.3261297,25.5 C18.462401,25.5 19.205688,24.9822785 19.8618038,24.525424 L19.8628506,24.5244868 C20.3116968,24.2124201 20.699114,23.9429931 21.1488642,23.8692404 C21.3821615,23.8310989 21.6139836,23.8116533 21.837812,23.8116533 C22.2233258,23.8116533 22.5285678,23.8600564 22.8011207,23.9123956 C22.9789843,23.9468822 23.1172116,23.9634696 23.2232731,23.9634696 L23.2336461,23.963657 L23.2443997,23.963657 C23.4783631,23.963657 23.6502789,23.8371903 23.7158952,23.6158853 C23.7594808,23.4702073 23.7905998,23.3333852 23.8212906,23.1948295 C23.8480319,23.0746885 23.8907611,22.8821067 23.9305401,22.8068078 C24.7184119,22.6849799 25.3222821,22.5298837 25.7262579,22.3451739 C26.0560526,22.194529 26.2591349,22.0231266 26.347353,21.8219701 C26.3738089,21.7616653 26.3892732,21.6991582 26.3927467,21.6355266 C26.4051658,21.419657 26.2500466,21.2289964 26.0330226,21.1939475 C23.5784768,20.7955704 22.4727059,18.3119689 22.4269791,18.2064472 C22.424029,18.1995124 22.4206982,18.1926245 22.4172247,18.1859239 C22.2917495,17.9350522 22.2627717,17.7278043 22.3308148,17.5698498 C22.4647121,17.2591419 22.9789367,17.098376 23.3191519,16.9920109 C23.4176478,16.9614602 23.5104813,16.932409 23.587803,16.9023269 C23.9227365,16.7720648 24.1621244,16.6307444 24.3200508,16.4702597 C24.5086681,16.2789431 24.5454018,16.095639 24.5431178,15.9756854 C24.5373603,15.685454 24.312057,15.4275538 23.9536652,15.3012745 C23.8326152,15.2519811 23.6945782,15.2259755 23.5540194,15.2259755 C23.4583309,15.2259755 23.31663,15.238908 23.1824948,15.3005717 C22.8953341,15.4328955 22.6381029,15.5052425 22.4172723,15.515551 C22.2998385,15.5096939 22.2174731,15.4846254 22.1641331,15.4606816 C22.1708422,15.3474754 22.1782651,15.2311766 22.1859259,15.1099111 L22.1891139,15.0579936 C22.2677679,13.8308123 22.3655024,12.3035595 21.9550078,11.3968791 C21.6736522,10.775885 21.2958467,10.2418104 20.8318693,9.80880606 C20.4427392,9.44594647 19.990705,9.1518259 19.4880429,8.93441003 C18.6132853,8.55646253 17.7978156,8.5 17.3896524,8.5"></path>
            </g>
        </g>
    </g>
</svg>