<?xml version="1.0" encoding="UTF-8"?>
<svg  viewBox="0 0 19 14" version="1.1" xmlns="http://www.w3.org/2000/svg" xmlns:xlink="http://www.w3.org/1999/xlink">
    <!-- Generator: Sketch 48.2 (47327) - http://www.bohemiancoding.com/sketch -->
    <title>youtube</title>
    <desc>Created with Sketch.</desc>
    <defs></defs>
    <g id="Enabled" stroke="none" stroke-width="1" fill="none" fill-rule="evenodd" transform="translate(-613.000000, -46.000000)">
        <g id="Youtube" transform="translate(605.000000, 36.000000)">
            <g id="youtube" transform="translate(8.000000, 10.000000)">
                <path d="M18.2098361,3.5780957 C18.2098361,3.5780957 18.0302459,2.30122629 17.48,1.73894048 C16.7817213,1.00061462 15.9990984,0.997140149 15.6404918,0.954288295 C13.0711475,0.766666667 9.21713115,0.766666667 9.21713115,0.766666667 L9.20909836,0.766666667 C9.20909836,0.766666667 5.35508197,0.766666667 2.7857377,0.954288295 C2.42655738,0.997140149 1.6445082,1.00061462 0.945655738,1.73894048 C0.395409836,2.30122629 0.216393443,3.5780957 0.216393443,3.5780957 C0.216393443,3.5780957 0.0327868852,5.07791058 0.0327868852,6.57714637 L0.0327868852,7.98315043 C0.0327868852,9.4829653 0.216393443,10.9822011 0.216393443,10.9822011 C0.216393443,10.9822011 0.395409836,12.2590705 0.945655738,12.8213563 C1.6445082,13.5596822 2.56196721,13.536519 2.9704918,13.6135365 C4.43934426,13.75599 9.21311475,13.8 9.21311475,13.8 C9.21311475,13.8 13.0711475,13.7942092 15.6404918,13.6065876 C15.9990984,13.5631566 16.7817213,13.5596822 17.48,12.8213563 C18.0302459,12.2590705 18.2098361,10.9822011 18.2098361,10.9822011 C18.2098361,10.9822011 18.3934426,9.4829653 18.3934426,7.98315043 L18.3934426,6.57714637 C18.3934426,5.07791058 18.2098361,3.5780957 18.2098361,3.5780957 L18.2098361,3.5780957 Z" id="Youtube" fill="#FFFFFF"></path>
                <polygon id="Path" fill="#CE1312" points="7.31737705 9.68680114 7.31680328 4.48030094 12.277623 7.09252677"></polygon>
            </g>
        </g>
    </g>
</svg>