<?xml version="1.0" encoding="UTF-8"?>
<svg width="25px" height="39px" viewBox="0 0 25 39" version="1.1" xmlns="http://www.w3.org/2000/svg" xmlns:xlink="http://www.w3.org/1999/xlink">
    <!-- Generator: Sketch 48.2 (47327) - http://www.bohemiancoding.com/sketch -->
    <title>Knowledge</title>
    <desc>Created with Sketch.</desc>
    <defs>
        <path d="M10.4360364,0 C9.03719612,0 7.81321089,0.734729089 7.14055844,1.8330572 C6.46790598,0.734729089 5.2437172,0 3.84487694,0 C1.72127376,0 0,1.69277887 0,3.78098799 C0,4.86756766 0.466958609,5.84650355 1.21340029,6.53614676 L6.71695736,11.7159015 C6.81792138,11.8351933 6.96936742,11.9112067 7.13913354,11.9112067 C7.29638094,11.9112067 7.43795448,11.8456363 7.53810428,11.7409046 L13.069345,6.53614676 C13.81426,5.84660396 14.2809133,4.86766808 14.2809133,3.78098799 C14.2809133,1.69277887 12.5596396,0 10.4360364,0 Z" id="path-1"></path>
    </defs>
    <g id="Profile-(Desktop)" stroke="none" stroke-width="1" fill="none" fill-rule="evenodd" transform="translate(-98.000000, -483.000000)">
        <g id="Group-3" transform="translate(80.000000, 472.000000)">
            <g id="Knowledge" transform="translate(17.910448, 11.641791)">
                <path d="M12.8026727,1.30729572 C7.22946328,1.30729572 4.70041317,3.98584872 2.83044381,0.104590185 C2.83044381,0.104590185 -2.26153207,8.86161143 3.26102995,13.60064 C5.9049916,15.8694801 9.98866858,16.5294915 12.8026727,14.721762 L12.8026727,1.30729572 Z" id="Shape" fill="#E5E8F0" fill-rule="nonzero"></path>
                <path d="M12.5384758,1.30729572 C18.1116853,1.30729572 20.6407354,3.98584872 22.5107048,0.104590185 C22.5107048,0.104590185 27.6026806,8.86161143 22.0801186,13.60064 C19.436157,15.8694801 15.3523139,16.5294915 12.5384758,14.721762 L12.5383098,14.721762 L12.5384758,1.30729572 Z" id="Shape" fill="#A1A6BB" fill-rule="nonzero"></path>
                <path d="M0.128362163,20.5732646 C0.128362163,27.2024222 12.1268202,38.0287301 12.5509301,38.409236 L12.5509301,8.35497723 C5.68911733,8.36166709 0.128362163,13.8292373 0.128362163,20.5732646 Z" id="Shape" fill="#E5E8F0" fill-rule="nonzero"></path>
                <path d="M24.9861184,20.5732646 C24.9861184,13.8253213 19.418721,8.3546509 12.5509301,8.3546509 C12.5469447,8.3546509 12.5426273,8.35497723 12.5383098,8.35497723 L12.5383098,38.4090729 C12.5461145,38.416089 12.5509301,38.4201682 12.5509301,38.4201682 C12.5509301,38.4201682 24.9861184,27.3216974 24.9861184,20.5732646 Z" id="Shape" fill="#A1A6BB" fill-rule="nonzero"></path>
                <ellipse id="Oval" fill="#FFFFFF" fill-rule="nonzero" cx="6.21402392" cy="7.33028712" rx="4.00064841" ry="3.93102454"></ellipse>
                <ellipse id="Oval" fill="#3E4D75" fill-rule="nonzero" cx="6.21418998" cy="7.33045029" rx="2.58268657" ry="2.53773969"></ellipse>
                <ellipse id="Oval" fill="#FFFFFF" fill-rule="nonzero" cx="4.76334882" cy="6.28732229" rx="1.13051695" ry="1.1108424"></ellipse>
                <ellipse id="Oval" fill="#FFFFFF" fill-rule="nonzero" cx="19.2524978" cy="7.21965975" rx="4.00064841" ry="3.93102454"></ellipse>
                <ellipse id="Oval" fill="#353859" fill-rule="nonzero" cx="19.2524978" cy="7.21965975" rx="2.58252051" ry="2.53757652"></ellipse>
                <ellipse id="Oval" fill="#F8FBFA" fill-rule="nonzero" cx="17.8016566" cy="6.17685808" rx="1.13051695" ry="1.1108424"></ellipse>
                <path d="M10.620682,6.26529471 L12.2015459,8.3267493 C12.2940397,8.44749304 12.4159257,8.50835441 12.5381437,8.50965975 L12.5381437,5.53446876 C11.1724899,5.53544776 10.4335356,6.02135973 10.620682,6.26529471 Z" id="Shape" fill="#B9BED1" fill-rule="nonzero"></path>
                <path d="M12.8827123,8.32676375 L14.4637422,6.26529849 C14.6508886,6.02103591 13.7570031,5.53446876 12.5421291,5.53446876 C12.5409667,5.53446876 12.5398043,5.53446876 12.5384758,5.53446876 L12.5384758,8.50969096 C12.6631847,8.51081732 12.7882258,8.4501188 12.8827123,8.32676375 Z" id="Shape" fill="#82879C" fill-rule="nonzero"></path>
                <g id="heart" transform="translate(5.479885, 15.664053)">
                    <mask id="mask-2" fill="white">
                        <use xlink:href="#path-1"></use>
                    </mask>
                    <use id="Mask" fill="#F4F9F8" fill-rule="nonzero" xlink:href="#path-1"></use>
                    <rect id="Rectangle" fill="#FFFFFF" mask="url(#mask-2)" x="-0.332114263" y="-0.489501644" width="7.47257092" height="12.7270428"></rect>
                </g>
            </g>
        </g>
    </g>
</svg>