<?xml version="1.0" encoding="UTF-8"?>
<svg width="19px" height="19px" viewBox="0 0 19 19" version="1.1" xmlns="http://www.w3.org/2000/svg" xmlns:xlink="http://www.w3.org/1999/xlink">
    <!-- Generator: Sketch 48.2 (47327) - http://www.bohemiancoding.com/sketch -->
    <title>Path</title>
    <desc>Created with Sketch.</desc>
    <defs></defs>
    <g id="Edit-Profile-(Desktop)" stroke="none" stroke-width="1" fill="none" fill-rule="evenodd" transform="translate(-638.000000, -508.000000)">
        <g id="Group-10" transform="translate(368.000000, 499.000000)" fill="#B9BED1">
            <g id="social-icons">
                <g id="Dribbble" transform="translate(262.000000, 1.000000)">
                    <path d="M26.8333333,17.4870609 C26.8333333,18.1182553 26.7690742,18.7485741 26.6428575,19.3629881 C26.5197825,19.9628106 26.3374898,20.5516894 26.0986826,21.1146317 C25.8653552,21.6676153 25.5759518,22.200499 25.2377787,22.697451 C24.904647,23.1912658 24.5208824,23.6545478 24.0993076,24.076864 C23.6768195,24.4973562 23.2119548,24.8800563 22.7183762,25.2146042 C22.2197928,25.5504289 21.686139,25.8394147 21.1328312,26.0738281 C20.5690754,26.3113787 19.9788342,26.4934084 19.3795331,26.6162693 C18.7643042,26.7428146 18.1316863,26.8074187 17.4995799,26.8074187 C16.8669985,26.8074187 16.2344171,26.7428146 15.6200651,26.6162693 C15.0198507,26.4934084 14.429646,26.3113787 13.8663286,26.0738281 C13.3130573,25.8394147 12.7788921,25.5504289 12.2803087,25.2146042 C11.7867301,24.8800928 11.3218653,24.4973562 10.9002906,24.076864 C10.4782774,23.6545478 10.0945128,23.1912658 9.76090615,22.697451 C9.42455961,22.200499 9.13468128,21.6675788 8.9004406,21.1146317 C8.66159693,20.5516894 8.47886581,19.9627741 8.35535244,19.3629881 C8.23048739,18.7485741 8.16666667,18.1182553 8.16666667,17.4870609 C8.16666667,16.8553924 8.23045086,16.2237238 8.35538897,15.6106595 C8.47890234,15.010837 8.66163346,14.4210462 8.90047713,13.8590159 C9.13471782,13.3056311 9.42459615,12.7722731 9.76094269,12.2752847 C10.0945494,11.7810686 10.4783139,11.3186621 10.9003271,10.8958717 C11.3219019,10.475343 11.7867666,10.0935549 12.2803452,9.75951764 C12.7789286,9.42227025 13.3130938,9.13332092 13.8663651,8.89846979 C14.4296825,8.66040852 15.0198507,8.47794108 15.6201016,8.35599213 C16.2344537,8.2303953 16.867035,8.16666667 17.4996164,8.16666667 C18.1317229,8.16666667 18.7643042,8.2303953 19.3795696,8.35599213 C19.9788707,8.47797756 20.5690754,8.660445 21.1328678,8.89846979 C21.686139,9.13328444 22.2198293,9.42227025 22.7184127,9.75951764 C23.2119913,10.0935549 23.6768926,10.475343 24.0993441,10.8958717 C24.5209189,11.3186621 24.9046835,11.7810686 25.2378152,12.2752847 C25.5759518,12.7722731 25.8653552,13.3056675 26.0986826,13.8590159 C26.3374898,14.4210462 26.5197825,15.010837 26.6428575,15.6106595 C26.7690742,16.2237238 26.8333333,16.8553924 26.8333333,17.4870609 Z M14.0987427,10.287878 C11.8760133,11.3359896 10.2170764,13.3811789 9.69978877,15.8459849 C9.90991859,15.8478088 13.2314457,15.8896866 17.0583876,14.874333 C15.6788444,12.426818 14.2049401,10.4294526 14.0987427,10.287878 Z M17.7187696,16.0999509 C13.6147354,17.3268456 9.67655466,17.2385667 9.53528693,17.2331313 C9.53298543,17.3186743 9.52889389,17.4014814 9.52889389,17.4870609 C9.52889389,19.531776 10.3013913,21.3958475 11.5711205,22.8053191 C11.5683807,22.801197 13.7496466,18.9369876 18.0510245,17.5480536 C18.1549204,17.5134717 18.2606795,17.4825011 18.3654887,17.4524789 C18.1654416,17.0001406 17.9470921,16.5468539 17.7187696,16.0999509 Z M22.7635293,11.5134594 C21.3602405,10.2778463 19.5176591,9.52835088 17.4995799,9.52835088 C16.8519475,9.52835088 16.2234577,9.60663459 15.6214167,9.75134636 C15.740802,9.91156167 17.237977,11.8948463 18.6011175,14.3941978 C21.6086554,13.2683132 22.7439118,11.5425696 22.7635293,11.5134594 Z M18.9087502,18.7713369 C18.8909959,18.77721 18.8732415,18.7822806 18.855889,18.7886279 C14.1530538,20.4257405 12.6172792,23.7249919 12.6006629,23.7610073 C13.9538218,24.8118043 15.6510439,25.445771 17.4995799,25.445771 C18.6033825,25.445771 19.6547988,25.2213528 20.6114155,24.8150144 C20.4933819,24.1196172 20.0303437,21.6821339 18.9087502,18.7713369 Z M21.95366,24.0877711 C23.7433801,22.8817789 25.014461,20.9667463 25.3690368,18.7485376 C25.2049733,18.6957527 22.9749742,17.990798 20.4022355,18.4026812 C21.4477337,21.2716369 21.8725233,23.6081101 21.95366,24.0877711 Z M19.2145929,15.5801996 C19.399589,15.9597625 19.57874,16.346074 19.7441551,16.7343189 C19.802971,16.8735953 19.8603987,17.0101359 19.9164382,17.1466399 C22.654592,16.8025709 25.3521957,17.3814545 25.467526,17.4050929 C25.4492967,15.5182949 24.7733889,13.7866418 23.6550101,12.4309401 C23.6399591,12.4522803 22.3615719,14.2967991 19.2145929,15.5801996 Z" id="Path"></path>
                </g>
            </g>
        </g>
    </g>
</svg>