<?xml version="1.0" encoding="UTF-8"?>
<svg width="19px" height="19px" viewBox="0 0 19 19" version="1.1" xmlns="http://www.w3.org/2000/svg" xmlns:xlink="http://www.w3.org/1999/xlink">
    <!-- Generator: Sketch 48.2 (47327) - http://www.bohemiancoding.com/sketch -->
    <title>Shape</title>
    <desc>Created with Sketch.</desc>
    <defs></defs>
    <g id="Edit-Profile-(Desktop)" stroke="none" stroke-width="1" fill="none" fill-rule="evenodd" transform="translate(-574.000000, -508.000000)">
        <g id="Group-10" transform="translate(368.000000, 499.000000)" fill="#B9BED1">
            <g id="social-icons">
                <g id="LinkedIN" transform="translate(198.000000, 1.000000)">
                    <path d="M12.3670619,14.4942644 L12.3670619,26.4100957 L8.40117916,26.4100957 L8.40117916,14.4942644 L12.3670619,14.4942644 Z M12.6282649,10.8082171 C12.6282649,11.9523564 11.7670393,12.8678577 10.3841997,12.8678577 L10.3588556,12.8678577 C9.02741702,12.8678577 8.16666667,11.9523564 8.16666667,10.8082171 C8.16666667,9.63987737 9.05363236,8.75 10.4103359,8.75 C11.7670393,8.75 12.6025248,9.63987737 12.6282649,10.8082171 Z M26.669552,19.5779222 L26.6693936,26.4100957 L22.7036693,26.4100957 L22.7036693,20.0351192 C22.7036693,18.4338619 22.1297829,17.3412077 20.6941166,17.3412077 C19.5984578,17.3412077 18.9458462,18.0778161 18.6592198,18.7892751 C18.5543584,19.0442488 18.5286183,19.3995038 18.5286183,19.7556287 L18.5286183,26.410412 L14.5622604,26.410412 C14.5622604,26.410412 14.6145327,15.6127007 14.5622604,14.4945807 L18.5286183,14.4945807 L18.5286183,16.1823583 C19.0549844,15.3710135 19.9977072,14.2144576 22.10333,14.2144576 C24.7130636,14.2144576 26.669552,15.9178942 26.669552,19.5779222 Z" id="Shape"></path>
                </g>
            </g>
        </g>
    </g>
</svg>