<?xml version="1.0" encoding="UTF-8"?>
<svg  viewBox="0 0 19 17" version="1.1" xmlns="http://www.w3.org/2000/svg" xmlns:xlink="http://www.w3.org/1999/xlink">
    <!-- Generator: Sketch 48.2 (47327) - http://www.bohemiancoding.com/sketch -->
    <title>Group</title>
    <desc>Created with Sketch.</desc>
    <defs></defs>
    <g id="Edit-Profile-(Desktop)" stroke="none" stroke-width="1" fill="none" fill-rule="evenodd" transform="translate(-766.000000, -508.000000)">
        <g id="Group-10" transform="translate(368.000000, 499.000000)">
            <g id="social-icons">
                <g id="Medium" transform="translate(390.000000, 0.000000)">
                    <g id="Group" transform="translate(8.750000, 9.916667)">
                        <path d="M11.8281803,0.0172740623 C11.7393267,-0.0274729842 11.6666667,0.0177591251 11.6666667,0.117803335 L11.6666667,12.4211796 L17.0154591,15.1148548 C17.2819596,15.2490959 17.5,15.113339 17.5,14.8132063 L17.5,2.96991217 C17.5,2.9109164 17.4668906,2.85695316 17.4145176,2.83057787 L11.8281803,0.0172740623" id="Fill-6" fill="#B9BED1"></path>
                        <path d="M5.83333333,9.35338697 L11.599542,0.0921885435 C11.6518637,0.00819148848 11.7676971,-0.0244507834 11.8569766,0.0196700896 L17.4269035,2.77226255 C17.4962826,2.806519 17.521022,2.8922498 17.4803744,2.95753434 L11.6946283,12.25 L5.83333333,9.35338697" id="Fill-7" fill="#A5AABA"></path>
                        <path d="M0.378649639,0.079822556 C0.0146732121,-0.0992559463 -0.108645923,0.0332779233 0.104634521,0.374382722 L5.69179291,9.30979922 L11.6666667,12.25 L5.7303918,2.75616928 C5.70517304,2.71575373 5.66891721,2.68316642 5.62587884,2.66192702 L0.378649639,0.079822556" id="Fill-9" fill="#9094A5"></path>
                        <path d="M5.83333333,14.8117074 C5.83333333,15.1131128 5.61523498,15.2494455 5.34873721,15.1146351 L0.323084147,12.5729048 C0.145378836,12.4830312 0,12.245134 0,12.0441971 L0,0.236656333 C0,0.0357194089 0.145378836,-0.0551893266 0.323084147,0.0346842793 L5.76139639,2.78514543 C5.80546153,2.80743116 5.83333333,2.85297686 5.83333333,2.90284575 L5.83333333,14.8117074" id="Fill-10" fill="#797D8D"></path>
                    </g>
                </g>
            </g>
        </g>
    </g>
</svg>