<?xml version="1.0" encoding="UTF-8"?>
<svg width="17px" height="14px" viewBox="0 0 17 14" version="1.1" xmlns="http://www.w3.org/2000/svg" xmlns:xlink="http://www.w3.org/1999/xlink">
    <!-- Generator: Sketch 48.2 (47327) - http://www.bohemiancoding.com/sketch -->
    <title>Shape</title>
    <desc>Created with Sketch.</desc>
    <defs></defs>
    <g id="Edit-Profile-(Desktop)" stroke="none" stroke-width="1" fill="none" fill-rule="evenodd" transform="translate(-510.000000, -511.000000)">
        <g id="Group-10" transform="translate(368.000000, 499.000000)" fill="#B9BED1">
            <g id="social-icons">
                <g id="Twitter" transform="translate(133.000000, 1.000000)">
                    <path d="M17.25447,14.7242192 L17.2913204,15.3297587 L16.6771485,15.255611 C14.4415628,14.9713782 12.4884963,14.0074582 10.8302322,12.3885669 L10.0195253,11.5853003 L9.81070688,12.1784818 C9.36850313,13.5007823 9.65102219,14.8972305 10.57228,15.8364346 C11.0636175,16.3554684 10.9530666,16.4296161 10.1055094,16.1206674 C9.81070688,16.0218038 9.55275469,15.9476561 9.52818782,15.98473 C9.44220375,16.0712356 9.73700625,17.1958089 9.97039157,17.6406951 C10.2897609,18.2585925 10.9407831,18.864132 11.6532225,19.2225125 L12.255111,19.5067453 L11.5426716,19.5191033 C10.8547991,19.5191033 10.8302322,19.5314612 10.9039328,19.7909781 C11.1496016,20.5942448 12.1199931,21.4469432 13.2009357,21.8176817 L13.9625088,22.0771986 L13.2992032,22.472653 C12.3165281,23.0411186 11.161885,23.3624253 10.0072419,23.3871412 C9.45448719,23.3994991 9,23.4489309 9,23.4860048 C9,23.6095842 10.4985794,24.3016294 11.3707035,24.5735042 C13.9870757,25.3767709 17.0947854,25.0307483 19.4286385,23.659016 C21.0869026,22.6827381 22.7451666,20.7425402 23.5190232,18.864132 C23.9366601,17.8631381 24.354297,16.0341618 24.354297,15.1567474 C24.354297,14.5882818 24.3911473,14.5141341 25.0790198,13.8344469 C25.4843732,13.4389926 25.8651598,13.0064644 25.9388604,12.8828849 C26.0616948,12.6480838 26.0494114,12.6480838 25.422956,12.858169 C24.3788638,13.2289074 24.2314626,13.1794756 24.747367,12.6233679 C25.1281535,12.2279136 25.5826407,11.5111526 25.5826407,11.3010674 C25.5826407,11.2639936 25.3983892,11.3257833 25.1895707,11.4370049 C24.9684688,11.5605844 24.4771313,11.7459536 24.1086282,11.8571751 L23.4453226,12.0672603 L22.8434341,11.659448 C22.5117813,11.4370049 22.0450107,11.1898459 21.799342,11.1156982 C21.1728866,10.9426869 20.2147785,10.9674028 19.6497404,11.16513 C18.1143107,11.7212377 17.1439191,13.1547597 17.25447,14.7242192 Z" id="Shape"></path>
                </g>
            </g>
        </g>
    </g>
</svg>