<?xml version="1.0" encoding="UTF-8"?>
<svg width="19px" height="17px" viewBox="0 0 19 17" version="1.1" xmlns="http://www.w3.org/2000/svg" xmlns:xlink="http://www.w3.org/1999/xlink">
    <!-- Generator: Sketch 49.1 (51147) - http://www.bohemiancoding.com/sketch -->
    <title>date</title>
    <desc>Created with Sketch.</desc>
    <defs></defs>
    <g id="Page-1" stroke="none" stroke-width="1" fill="none" fill-rule="evenodd">
        <g id="Homepage" transform="translate(-404.000000, -37.000000)" class="SVGFill" fill-rule="nonzero">
            <g id="Group-2" transform="translate(384.000000, 23.000000)">
                <g id="noun_846163_cc-(1)" transform="translate(20.000000, 14.000000)">
                    <g id="date">
                        <path d="M10.4161883,13.535762 L12.3570608,11.1802219 C12.4052813,11.1250678 12.4555109,11.0676156 12.5057405,10.9940768 L12.5077497,10.9917787 L12.5097589,10.9894806 C12.6624569,10.7803546 12.783008,10.5390554 12.869403,10.2770733 C12.9537887,10.0173894 13,9.73472459 13,9.44056934 C13,8.08929366 12.0416188,7 10.8662457,7 C10.347876,7 9.86969001,7.21602026 9.50200918,7.57222389 C9.13030999,7.21602026 8.652124,7 8.13375431,7 C6.95838117,7 6,8.08929366 6,9.44056934 C6,10.0311779 6.18685419,10.5735267 6.49425947,10.9940768 L6.50028703,11.0032691 C6.53846154,11.053827 6.58467279,11.1135773 6.63490241,11.1710295 L8.57778416,13.5403581 C8.82290471,13.8414077 9.15642939,13.9999757 9.48392652,13.9999757 L9.49196326,13.9999757 C9.82950631,14.0022738 10.1650402,13.8414077 10.4161883,13.535762 Z M19,5 L19,14.1598405 C19,15.7299746 17.765,17 16.2428889,17 L2.75711111,17 C1.235,17 0,15.7299746 0,14.1598405 L0,5 L19,5 Z" id="Shape"></path>
                        <path d="M19,2.57339901 L19,4 L0,4 L0,2.57339901 C0,1.15073892 1.235,0 2.75711111,0 L3.88022222,0 C4.04911111,0 4.18633333,0.128078818 4.18633333,0.285714286 L4.18633333,1.42857143 C4.18633333,1.6137931 4.26655556,1.77931034 4.39533333,1.90147783 C4.52622222,2.02167488 4.70355556,2.09655172 4.902,2.09655172 C5.10044444,2.09655172 5.27777778,2.02167488 5.40655556,1.90147783 C5.53744444,1.77931034 5.61555556,1.6137931 5.61555556,1.42857143 L5.61555556,0.287684729 L5.61555556,0.285714286 C5.61555556,0.128078818 5.75277778,0 5.92166667,0 L13.072,0 C13.2408889,0 13.3781111,0.128078818 13.3781111,0.285714286 L13.3781111,1.42857143 C13.3781111,1.6137931 13.4583333,1.77931034 13.5871111,1.90147783 C13.718,2.02167488 13.8953333,2.09655172 14.0937778,2.09655172 C14.2922222,2.09655172 14.4674444,2.02167488 14.5983333,1.90147783 C14.7292222,1.77931034 14.8073333,1.6137931 14.8073333,1.42857143 L14.8073333,0.287684729 L14.8073333,0.285714286 C14.8073333,0.128078818 14.9445556,0 15.1134444,0 L16.2428889,0 C17.765,7.00042104e-16 19,1.15073892 19,2.57339901 Z" id="Shape"></path>
                    </g>
                </g>
            </g>
        </g>
    </g>
</svg>