<?xml version="1.0" encoding="UTF-8"?>
<svg width="22px" height="22px" viewBox="0 0 22 22" version="1.1" xmlns="http://www.w3.org/2000/svg" xmlns:xlink="http://www.w3.org/1999/xlink">
    <!-- Generator: Sketch 48.2 (47327) - http://www.bohemiancoding.com/sketch -->
    <title>feedback</title>
    <desc>Created with Sketch.</desc>
    <defs></defs>
    <g id="Logged-Out" stroke="none" stroke-width="1" fill="none" fill-rule="evenodd" transform="translate(-637.000000, -37.000000)">
        <g id="Group-11" transform="translate(617.000000, 25.000000)" class="SVGFill"  fill-rule="nonzero">
            <g id="noun_79367_cc" transform="translate(20.000000, 12.000000)">
                <path d="M0,1 L1.55431223e-15,20.7532854 C1.62194761e-15,21.3055701 0.44771525,21.7532854 1,21.7532854 C1.24719603,21.7532854 1.48563185,21.6617278 1.66929722,21.4962802 L4.97141431,18.5216997 L21,18.5216997 C21.5522847,18.5216997 22,18.0739844 22,17.5216997 L22,1 C22,0.44771525 21.5522847,-1.01453063e-16 21,0 L1,-1.11022302e-16 C0.44771525,-9.5692398e-18 -1.78657678e-16,0.44771525 -1.11022302e-16,1 Z M5.89128141,4.14011392 L10.0804909,4.14011392 C10.5885195,4.14011392 11.000358,4.55195244 11.000358,5.05998101 L11.000358,5.05998101 C11.000358,5.56800958 10.5885195,5.97984811 10.0804909,5.97984811 L5.89128141,5.97984811 C5.38325284,5.97984811 4.97141431,5.56800958 4.97141431,5.05998101 L4.97141431,5.05998101 C4.97141431,4.55195244 5.38325284,4.14011392 5.89128141,4.14011392 Z M4.97141431,13.7321491 L4.97141431,13.7321491 C4.97141431,13.2241861 5.38319971,12.8124007 5.89116275,12.8124007 L14.0312491,12.8124007 C14.5392121,12.8124007 14.9509975,13.2241861 14.9509975,13.7321491 L14.9509975,13.7321491 C14.9509975,14.2401122 14.5392121,14.6518976 14.0312491,14.6518976 L5.89116275,14.6518976 C5.38319971,14.6518976 4.97141431,14.2401122 4.97141431,13.7321491 Z M16.1093146,10.3155168 L5.89116275,10.3155168 C5.38319971,10.3155168 4.97141431,9.90373145 4.97141431,9.39576841 L4.97141431,9.39576841 C4.97141431,8.88780538 5.38319971,8.47601998 5.89116275,8.47601998 L16.1093146,8.47601998 C16.6172776,8.47601998 17.029063,8.88780538 17.029063,9.39576841 L17.029063,9.39576841 C17.029063,9.90373145 16.6172776,10.3155168 16.1093146,10.3155168 Z" id="feedback"></path>
            </g>
        </g>
    </g>
</svg>