<?xml version="1.0" encoding="UTF-8"?>
<svg width="22px" height="29px" viewBox="0 0 22 29" version="1.1" xmlns="http://www.w3.org/2000/svg" xmlns:xlink="http://www.w3.org/1999/xlink">
    <!-- Generator: Sketch 48.2 (47327) - http://www.bohemiancoding.com/sketch -->
    <title>idk</title>
    <desc>Created with Sketch.</desc>
    <defs>
        <rect id="path-1" x="0" y="0" width="30" height="29"></rect>
    </defs>
    <g id="Desktop" stroke="none" stroke-width="1" fill="none" fill-rule="evenodd" transform="translate(-607.000000, -603.000000)">
        <g id="Group-4" transform="translate(593.000000, 594.000000)">
            <g id="idk" transform="translate(10.000000, 9.000000)">
                <g id="Group">
                    <g id="Group-5">
                        <mask id="mask-2" class="SVGFill">
                            <use xlink:href="#path-1"></use>
                        </mask>
                        <g id="Rectangle-7"></g>
                        <path d="M14.2006398,0.974949518 C13.9702805,1.0284666 13.7506378,1.10801608 13.5397478,1.21495303 C13.3321008,1.31877388 13.1390519,1.44815256 12.9606036,1.60231148 C12.7854035,1.7532914 12.6332867,1.92900581 12.5035059,2.13031808 C12.3737292,2.33163607 12.2707151,2.55608761 12.1960877,2.80457038 C12.1247338,3.04993133 12.0890091,3.32042128 12.0890091,3.6161203 C12.0890091,3.68217044 12.1246819,3.73617923 12.1960877,3.77686594 C12.2707151,3.81791857 12.3632574,3.84758167 12.47357,3.8661697 C12.5871249,3.88475202 12.7087816,3.89578706 12.8385577,3.89075554 C12.9683385,3.88732496 13.0874753,3.8734311 13.1977879,3.84833068 C13.3113428,3.82317308 13.4064044,3.7872606 13.4810266,3.74005007 C13.5590119,3.68967769 13.5999652,3.62953959 13.6030736,3.56032188 C13.6128101,3.4061744 13.6473624,3.25605213 13.7089998,3.10822263 C13.7738885,2.96040457 13.8662302,2.82966509 13.9830287,2.71639871 C14.0998325,2.60001621 14.2401193,2.50653857 14.4055847,2.43732658 C14.5710507,2.36525005 14.758871,2.32958915 14.969761,2.32457478 C15.1579381,2.32171597 15.3350813,2.3535632 15.5005473,2.42281522 C15.666018,2.48886536 15.8088182,2.57857508 15.9288597,2.69184146 C16.0521546,2.80510784 16.1472121,2.93826016 16.2120995,3.0892458 C16.2770135,3.23706386 16.3035874,3.38966758 16.2938474,3.54693118 C16.2808969,3.74824916 16.2319793,3.92790874 16.1476219,4.08833419 C16.0632651,4.24877108 15.9493616,4.38833287 15.8033597,4.50472108 C15.6573578,4.62109786 15.4815827,4.71610783 15.2771798,4.7916035 C15.0727751,4.86378295 14.8415029,4.91478999 14.5852001,4.94341819 C14.4878651,4.95559676 14.3978368,4.97303555 14.3134747,4.99813598 C14.2323662,5.02026323 14.1609628,5.05720488 14.0993182,5.1075258 C14.0409172,5.15475348 13.9933926,5.21752741 13.957698,5.29618494 C13.925369,5.37479101 13.910838,5.4759989 13.9139459,5.5987051 L13.9530922,7.20841422 C13.9562178,7.30278953 13.9947744,7.38101252 14.0693812,7.44394655 C14.1440086,7.50371872 14.2365521,7.54960847 14.3468635,7.58125559 C14.460419,7.61241671 14.5820704,7.62894068 14.7118512,7.6337435 C14.8448755,7.63888937 14.9665269,7.62591033 15.0768389,7.60023815 C15.1903939,7.57513772 15.2854549,7.5365208 15.3600776,7.48302088 C15.438083,7.4295038 15.4778645,7.36298481 15.4809729,7.28432728 L15.4613998,6.13118288 C15.8896703,6.04946642 16.2584995,5.91979614 16.5667239,5.74047962 C16.8781906,5.5611631 17.1346903,5.34973633 17.335845,5.10753152 C17.5370062,4.86215914 17.6838886,4.59415064 17.7779748,4.30156774 C17.872061,4.00903629 17.9157081,3.70784834 17.9092323,3.3995934 C17.902757,3.11017806 17.856363,2.84605756 17.7687638,2.60702032 C17.684407,2.36793162 17.569347,2.15385759 17.4233498,1.96514699 C17.2773479,1.77644211 17.1068067,1.61352377 16.9121379,1.47509407 C16.720712,1.33671011 16.5144708,1.2237925 16.2938468,1.1357409 C16.0732221,1.04447598 15.8431075,0.976601915 15.6030188,0.93592093 C15.3661742,0.892066656 15.1321875,0.873541514 14.9018293,0.880059619 C14.6649847,0.886354737 14.4309986,0.918316326 14.2006398,0.974949518 Z M6.44609844,4.7258564 L6.44609844,4.74598248 C6.32637785,4.7582754 6.2061501,4.76645162 6.08917057,4.79509698 C5.90763975,4.83729314 5.73293505,4.8993295 5.56644412,4.98375612 C5.40220655,5.06595287 5.24937496,5.16986519 5.10934641,5.29073603 C4.968862,5.41180699 4.84620456,5.55180904 4.74320754,5.71157696 C4.63933478,5.87271712 4.55866732,6.0518278 4.50026691,6.24629035 C4.44201333,6.44375465 4.4150367,6.65690242 4.4150367,6.88484173 C4.4150367,6.99721616 4.49697916,7.11045395 4.58889514,7.16280463 C4.66972123,7.20711632 4.75739292,7.23589318 4.85376903,7.25213699 C4.94702487,7.26723155 5.04935195,7.27643695 5.15891266,7.27226307 C5.26217447,7.26940425 5.3608865,7.2579118 5.45481758,7.23652784 C5.55288209,7.21468647 5.64229348,7.18232465 5.72078602,7.13271271 C5.81139987,7.07274042 5.89172705,6.96937127 5.89697565,6.85246275 C5.90269604,6.76723566 5.92322455,6.68085932 5.95915034,6.59359103 C5.99629746,6.5089986 6.04700957,6.43474365 6.11458619,6.36921953 C6.18390016,6.30022481 6.26175224,6.24786841 6.35873459,6.20729606 C6.45268927,6.16555732 6.56122562,6.14249809 6.69266002,6.13914755 C6.80438623,6.13743226 6.90248906,6.15612893 6.99547186,6.19500886 C7.09675217,6.23634738 7.17794213,6.28888674 7.2464983,6.3535818 C7.31907111,6.42037523 7.3712599,6.49310929 7.4077477,6.57801619 C7.44323768,6.66111632 7.45568689,6.73749251 7.45034983,6.82365158 C7.4423236,6.94638065 7.41511344,7.05006427 7.36745083,7.14067738 C7.31823193,7.23430368 7.25234311,7.31385888 7.16711055,7.38180155 C7.08058353,7.45075625 6.97387594,7.50965363 6.84242148,7.55817349 C6.71151135,7.60442917 6.5609856,7.63844339 6.38992956,7.65752887 C6.30943961,7.66707732 6.23507696,7.68222906 6.16423088,7.70332714 C6.08176002,7.7259118 6.00343143,7.76461448 5.93740993,7.81830309 C5.86995125,7.8729637 5.81678116,7.94332493 5.78082175,8.02258853 C5.7409029,8.12511719 5.73091876,8.22131071 5.73356076,8.32649236 L5.7623455,9.77099037 C5.76600183,9.88617216 5.82360198,10.0022688 5.91202557,10.0768553 C5.99290062,10.1380341 6.08433007,10.183049 6.1848968,10.2119288 C6.2871077,10.239545 6.39086016,10.2537247 6.49697626,10.2577271 C6.61268668,10.2634447 6.71820066,10.2491506 6.81130258,10.2275951 C6.9112902,10.2054679 7.00295613,10.1704759 7.08302855,10.1137341 C7.17547057,10.0505428 7.24890675,9.94105004 7.25346065,9.8257253 L7.24194912,8.83208581 C7.49612884,8.76964922 7.74213784,8.69927655 7.94198746,8.58314563 C8.18424106,8.44366388 8.3887242,8.27601706 8.54991581,8.08193188 C8.709455,7.88734927 8.82732089,7.67185155 8.90223788,7.4389379 C8.97630685,7.20863721 9.01095469,6.97029181 9.00586237,6.72785829 C9.00067274,6.50204023 8.96535968,6.29128243 8.89417804,6.09714579 C8.82717699,5.90793204 8.73427676,5.73563106 8.61669571,5.58365056 C8.50022395,5.4331109 8.36307623,5.30118787 8.20795648,5.1907117 C8.05668178,5.08120752 7.89380943,4.99310446 7.72089457,4.92389246 C7.5490253,4.85279365 7.36995895,4.8006145 7.18320017,4.76872152 C6.99978397,4.73475876 6.81776367,4.71886373 6.63629477,4.72406678 L6.44609844,4.7258564 Z M23.0248125,4.7258564 L23.0248125,4.74598248 C22.9050919,4.7582754 22.7848647,4.76645162 22.6678846,4.79509698 C22.4863538,4.83729314 22.3104979,4.8993295 22.144007,4.98375612 C21.9797694,5.06595287 21.8280884,5.16986519 21.688061,5.29073603 C21.5475755,5.41180699 21.4249192,5.55180904 21.3219222,5.71157696 C21.21805,5.87271712 21.1373825,6.0518278 21.0789804,6.24629035 C21.0207268,6.44375465 20.9937502,6.65690242 20.9937502,6.88484173 C20.9937502,6.99721616 21.0745415,7.11045395 21.1664574,7.16280463 C21.2472835,7.20711632 21.336107,7.23589318 21.4324825,7.25213699 C21.5245589,7.26723155 21.6268859,7.27643695 21.7364467,7.27226307 C21.8397085,7.26940425 21.9395722,7.2579118 22.0335027,7.23652784 C22.1315678,7.21468647 22.2209786,7.18232465 22.2994718,7.13271271 C22.390085,7.07274042 22.4704122,6.96937127 22.4756608,6.85246275 C22.4813812,6.76723566 22.5007597,6.68085932 22.5366843,6.59359103 C22.5738315,6.5089986 22.6256947,6.43474365 22.6932719,6.36921953 C22.7614064,6.30022481 22.8392591,6.24786841 22.9362409,6.20729606 C23.0301955,6.16555732 23.1398836,6.14249809 23.2713175,6.13914755 C23.3830437,6.13743226 23.4799959,6.15612893 23.5729793,6.19500886 C23.6742602,6.23634738 23.7554496,6.28888674 23.8240058,6.3535818 C23.8965786,6.42037523 23.9487674,6.49310929 23.9852552,6.57801619 C24.0207451,6.66111632 24.0343443,6.73749251 24.0290073,6.82365158 C24.0209751,6.94638065 23.9926209,7.05006427 23.9449559,7.14067738 C23.895737,7.23430368 23.831,7.31385888 23.7457674,7.38180155 C23.6592398,7.45075625 23.5525334,7.50965363 23.4210783,7.55817349 C23.2901682,7.60442917 23.1396424,7.63844339 22.9685858,7.65752887 C22.8869158,7.66707732 22.8125538,7.68222906 22.7417077,7.70332714 C22.6592368,7.7259118 22.5809082,7.76461448 22.5148861,7.81830309 C22.447428,7.8729637 22.3954091,7.94332493 22.3594497,8.02258853 C22.3195367,8.12511719 22.3083908,8.22131071 22.3110328,8.32649236 L22.3398176,9.77099037 C22.3434739,9.88617216 22.4022252,10.0022688 22.4906488,10.0768553 C22.5715238,10.1380341 22.6618021,10.183049 22.7623689,10.2119288 C22.8645798,10.239545 22.9683328,10.2537247 23.0744489,10.2577271 C23.1901593,10.2634447 23.2968251,10.2491506 23.389927,10.2275951 C23.489914,10.2054679 23.58158,10.1704759 23.6616524,10.1137341 C23.7540944,10.0505428 23.82753,9.94105004 23.8320839,9.8257253 L23.8194224,8.83208581 C24.0736021,8.76964922 24.3196111,8.69927655 24.5194607,8.58314563 C24.7617143,8.44366388 24.966198,8.27601706 25.1273891,8.08193188 C25.2869288,7.88734927 25.4047941,7.67185155 25.4797111,7.4389379 C25.5537801,7.20863721 25.5895791,6.97029181 25.5844868,6.72785829 C25.5792971,6.50204023 25.5428282,6.29128243 25.4716519,6.09714579 C25.4046502,5.90793204 25.31175,5.73563106 25.194169,5.58365056 C25.0776966,5.4331109 24.9405495,5.30118787 24.7854297,5.1907117 C24.634155,5.08120752 24.4724344,4.99310446 24.299519,4.92389246 C24.1276497,4.85279365 23.9474316,4.8006145 23.7606734,4.76872152 C23.5772566,4.73475876 23.3963881,4.71886373 23.2149192,4.72406678 L23.0248125,4.7258564 Z M14.2167583,8.44300636 C14.0837446,8.53421981 13.9834445,8.64714314 13.9185511,8.78235953 C13.8570204,8.91450555 13.8290896,9.05803538 13.8321981,9.21213712 C13.8386792,9.3631685 13.8770883,9.50417685 13.948487,9.63632859 C14.0231091,9.76838313 14.1288496,9.87865347 14.2651168,9.96675653 C14.4013894,10.0515948 14.5680443,10.094014 14.7659666,10.094014 C14.9833425,10.094014 15.1632103,10.0501025 15.3059639,9.95894624 C15.4519659,9.86773278 15.560425,9.75267106 15.6318042,9.61735747 C15.7030696,9.48214108 15.7373854,9.33702746 15.7342769,9.17976387 C15.7342769,9.02249455 15.695856,8.87651185 15.6179874,8.74441157 C15.5433658,8.61225412 15.4310399,8.50556302 15.281785,8.42067899 C15.1357884,8.3327303 14.9506873,8.29023682 14.7268197,8.29676636 C14.5191733,8.30328447 14.3497827,8.3518272 14.2167583,8.44300636 Z M5.98784899,11.0361719 C5.85483528,11.127391 5.75568626,11.2403144 5.6907935,11.3755307 C5.62926221,11.5076825 5.60017965,11.6512009 5.60328812,11.8053026 C5.60976926,11.9563397 5.6481784,12.0962389 5.71957766,12.2283849 C5.79419979,12.3604337 5.89993964,12.4718304 6.03620688,12.5599278 C6.17247944,12.6447603 6.33914021,12.6871795 6.53705729,12.6871795 C6.75443311,12.6871795 6.93545146,12.6421817 7.07820515,12.5509968 C7.22420707,12.4597833 7.33266676,12.3458366 7.40404596,12.210523 C7.47531135,12.0753066 7.50847602,11.9301987 7.50536755,11.7729294 C7.50536755,11.6156658 7.46694661,11.4685567 7.38907802,11.3364564 C7.31445588,11.2043104 7.20328226,11.0987342 7.05402679,11.0138502 C6.90803017,10.9259015 6.72292853,10.8834023 6.49906095,10.8899376 C6.29141509,10.8964557 6.1208733,10.9449412 5.98784899,11.0361719 Z M22.566563,11.0361719 C22.4335493,11.127391 22.3332492,11.2403144 22.2683558,11.3755307 C22.2068251,11.5076825 22.1788937,11.6512009 22.1820022,11.8053026 C22.1884774,11.9563397 22.2268924,12.0962389 22.2982917,12.2283849 C22.3729138,12.3604337 22.4786537,12.4718304 22.6149209,12.5599278 C22.7511935,12.6447603 22.9178543,12.6871795 23.1157707,12.6871795 C23.3331466,12.6871795 23.5130144,12.6421817 23.655768,12.5509968 C23.80177,12.4597833 23.9102297,12.3458366 23.9816083,12.210523 C24.0528742,12.0753066 24.0871901,11.9301987 24.0840816,11.7729294 C24.0840816,11.6156658 24.0456607,11.4685567 23.9677921,11.3364564 C23.8931699,11.2043104 23.7808446,11.0987342 23.6315891,11.0138502 C23.4855931,10.9259015 23.3004914,10.8834023 23.0766244,10.8899376 C22.8689774,10.8964557 22.6995879,10.9449412 22.566563,11.0361719 Z M11.5271358,14.45764 C11.5276541,16.3216181 13.0815219,17.8165857 14.991637,17.8165857 C16.9141913,17.8165857 18.4722574,16.3216181 18.4722574,14.45764 C18.4722574,12.6052172 16.9141913,11.0986885 14.991637,11.0986885 C13.0810089,11.0986885 11.5271358,12.6052172 11.5271358,14.45764 Z M9.68032352,18.4417178 L8.28485085,21.7124804 L7.02524205,19.1193149 C6.8230823,18.685294 6.39526961,18.390664 5.90600784,18.3485103 C5.41674607,18.3063565 4.94205034,18.5232285 4.66411924,18.9158858 C4.38618814,19.3085431 4.34820299,19.8159799 4.56474332,20.2434309 L7.13577464,25.5346919 C7.36531713,26.0068536 7.86052536,26.3032946 8.39875352,26.2907349 C8.93698168,26.2781753 9.4169069,25.9589794 9.62275462,25.4766579 L10.2963117,23.8970807 L10.2963117,34.9105297 L10.2963117,50.4081268 C10.2968403,51.4481354 11.166575,52.2909573 12.2392645,52.2909573 C13.3119539,52.2909573 14.1816887,51.4481354 14.1822172,50.4081268 L14.1822172,34.9105297 L15.8171759,34.9105297 L15.8171759,50.4081268 C15.8000844,51.0918107 16.1665159,51.7307731 16.7745196,52.0774883 C17.3825233,52.4242035 18.1365835,52.4242035 18.7445872,52.0774883 C19.3525909,51.7307731 19.7190224,51.0918107 19.7019309,50.4081268 L19.7019309,33.7774657 L19.7019309,23.8970807 L20.3766391,25.4766579 C20.5824868,25.9589794 21.0624121,26.2781753 21.6006402,26.2907349 C22.1388684,26.3032946 22.6340766,26.0068536 22.8636191,25.5346919 L25.4346492,20.2434309 C25.6512038,19.8159782 25.6132265,19.3085317 25.3352943,18.9158659 C25.0573621,18.5232 24.5826579,18.3063242 24.0933887,18.3484823 C23.6041194,18.3906404 23.1763039,18.6852823 22.9741517,19.1193149 L21.7145423,21.7124804 L20.3190702,18.4417178 C20.1118499,17.9361179 19.6056259,17.6058124 19.0444929,17.6100704 C18.3885888,17.6100704 18.0328386,17.7538689 17.6455673,17.9817968 C16.8993272,18.5069389 15.9835925,18.8212602 14.988183,18.8212602 C14.0626347,18.8212602 13.2039169,18.5486547 12.4885379,18.0833878 C12.0232907,17.7953847 11.6683963,17.6126262 10.9134788,17.6124203 C10.366742,17.6225542 9.8817066,17.9499782 9.68032352,18.4417178 Z" id="Shape" class="SVGFill" fill-rule="nonzero" mask="url(#mask-2)"></path>
                    </g>
                </g>
            </g>
        </g>
    </g>
</svg>