<?xml version="1.0" encoding="UTF-8"?>
<svg width="19px" height="19px" viewBox="0 0 19 19" version="1.1" xmlns="http://www.w3.org/2000/svg" xmlns:xlink="http://www.w3.org/1999/xlink">
    <!-- Generator: Sketch 48.2 (47327) - http://www.bohemiancoding.com/sketch -->
    <title>instagram</title>
    <desc>Created with Sketch.</desc>
    <defs></defs>
    <g id="Desktop-HD" stroke="none" stroke-width="1" fill="none" fill-rule="evenodd" transform="translate(-520.000000, -472.000000)">
        <g id="Facebook" transform="translate(434.000000, 460.000000)" class="SVGFill">
            <path d="M95.3342083,12 C92.7994042,12 92.4812897,12.0110834 91.4857238,12.0563895 C90.4921023,12.10189 89.8138731,12.2591971 89.2204224,12.4900051 C88.6065549,12.7283965 88.0858273,13.0472887 87.5670441,13.5662663 C87.047872,14.0850495 86.7289798,14.6057771 86.4898107,15.2194502 C86.2584194,15.8130953 86.1009177,16.491519 86.056195,17.4847516 C86.0116668,18.4803175 86,18.7986264 86,21.3334306 C86,23.8682347 86.0112779,24.1853769 86.0563895,25.1809429 C86.1020844,26.1745643 86.2593916,26.8527936 86.4900051,27.4462442 C86.7285909,28.0601117 87.0474831,28.5808394 87.5664608,29.0996226 C88.0850495,29.6187946 88.6057771,29.9384646 89.2192558,30.176856 C89.8130953,30.407664 90.491519,30.5649712 91.484946,30.6104716 C92.4805119,30.6557777 92.7984319,30.6668611 95.3330417,30.6668611 C97.8680403,30.6668611 98.1851825,30.6557777 99.1807484,30.6104716 C100.17437,30.5649712 100.853377,30.407664 101.447216,30.176856 C102.06089,29.9384646 102.580839,29.6187946 103.099428,29.0996226 C103.6186,28.5808394 103.937492,28.0601117 104.176662,27.4464387 C104.406108,26.8527936 104.56361,26.1743699 104.610277,25.1811373 C104.655,24.1855714 104.666667,23.8682347 104.666667,21.3334306 C104.666667,18.7986264 104.655,18.4805119 104.610277,17.484946 C104.56361,16.4913246 104.406108,15.8130953 104.176662,15.2196446 C103.937492,14.6057771 103.6186,14.0850495 103.099428,13.5662663 C102.580256,13.0470942 102.061084,12.728202 101.446633,12.4900051 C100.851627,12.2591971 100.173009,12.10189 99.1793873,12.0563895 C98.1838214,12.0110834 97.8668736,12 95.3312916,12 L95.3342083,12 Z M94.4969218,13.681962 C94.7454244,13.6815731 95.0227051,13.681962 95.3342083,13.681962 C97.8262343,13.681962 98.1215985,13.6909065 99.1056921,13.7356292 C100.015702,13.7772407 100.509596,13.9292979 100.838599,14.0570492 C101.274159,14.2262176 101.58469,14.428442 101.911166,14.755112 C102.237836,15.0817821 102.44006,15.3928965 102.609617,15.8284565 C102.737369,16.1570711 102.88962,16.6509651 102.931037,17.5609746 C102.97576,18.5448737 102.985482,18.8404324 102.985482,21.3312916 C102.985482,23.8221509 102.97576,24.1177096 102.931037,25.1016087 C102.889426,26.0116182 102.737369,26.5055122 102.609617,26.8341267 C102.440449,27.2696868 102.237836,27.579829 101.911166,27.9063046 C101.584496,28.2329746 101.274354,28.435199 100.838599,28.6043674 C100.509984,28.7327021 100.015702,28.8843703 99.1056921,28.9259819 C98.1217929,28.9707046 97.8262343,28.9804269 95.3342083,28.9804269 C92.8419879,28.9804269 92.5466237,28.9707046 91.5627246,28.9259819 C90.6527151,28.8839814 90.1588211,28.7319243 89.8296232,28.604173 C89.3940631,28.4350045 89.0829488,28.2327802 88.7562787,27.9061101 C88.4296086,27.5794401 88.2273843,27.2691035 88.057827,26.833349 C87.9300757,26.5047344 87.7778241,26.0108404 87.736407,25.1008309 C87.6916843,24.1169318 87.6827398,23.8213731 87.6827398,21.3289583 C87.6827398,18.8365434 87.6916843,18.5425404 87.736407,17.5586412 C87.7780185,16.6486318 87.9300757,16.1547377 88.057827,15.8257343 C88.2269954,15.3901742 88.4296086,15.0790599 88.7562787,14.7523898 C89.0829488,14.4257197 89.3940631,14.2234954 89.8296232,14.0539381 C90.1586267,13.9256034 90.6527151,13.7739351 91.5627246,13.7321292 C92.4237336,13.6932399 92.7574037,13.6815731 94.4969218,13.6796286 L94.4969218,13.681962 Z M100.316316,15.2317003 C99.697976,15.2317003 99.1963041,15.7327889 99.1963041,16.3513231 C99.1963041,16.9696629 99.697976,17.4713348 100.316316,17.4713348 C100.934656,17.4713348 101.436327,16.9696629 101.436327,16.3513231 C101.436327,15.7329833 100.934656,15.2313114 100.316316,15.2313114 L100.316316,15.2317003 Z M95.3342083,16.5403251 C92.6872085,16.5403251 90.5411029,18.6864308 90.5411029,21.3334306 C90.5411029,23.9804304 92.6872085,26.1255638 95.3342083,26.1255638 C97.9812081,26.1255638 100.126536,23.9804304 100.126536,21.3334306 C100.126536,18.6864308 97.9810137,16.5403251 95.3340139,16.5403251 L95.3342083,16.5403251 Z M95.3342083,18.222287 C97.0523374,18.222287 98.4453519,19.6151071 98.4453519,21.3334306 C98.4453519,23.0515596 97.0523374,24.4445741 95.3342083,24.4445741 C93.6158849,24.4445741 92.2230648,23.0515596 92.2230648,21.3334306 C92.2230648,19.6151071 93.6158849,18.222287 95.3342083,18.222287 L95.3342083,18.222287 Z" id="instagram"></path>
        </g>
    </g>
</svg>