<?xml version="1.0" encoding="UTF-8"?>
<svg width="19px" height="18px" viewBox="0 0 19 18" version="1.1" xmlns="http://www.w3.org/2000/svg" xmlns:xlink="http://www.w3.org/1999/xlink">
    <!-- Generator: Sketch 48.2 (47327) - http://www.bohemiancoding.com/sketch -->
    <title>link</title>
    <desc>Created with Sketch.</desc>
    <defs></defs>
    <g id="Desktop" stroke="none" stroke-width="1" fill="none" fill-rule="evenodd" transform="translate(-38.000000, -625.000000)">
        <g id="Group-3" transform="translate(20.000000, 614.000000)" class="SVGFill" fill-rule="nonzero">
            <g id="link" transform="translate(18.000000, 11.000000)">
                <path d="M17.4623982,1.53101693 C16.4695597,0.543432629 15.1512195,0 13.7500455,0 C12.3482882,0 11.029948,0.543432629 10.0382762,1.53101693 C10.0382762,1.53101693 6.72609231,4.82586754 6.53650799,5.01339824 C5.54833619,5.99866018 5.00233335,7.31311688 5,8.71756509 C5.00233335,10.1109821 5.54833619,11.4202135 6.53767467,12.4048948 L6.96467689,12.829887 C7.07842748,12.9431021 7.22776159,13 7.3770957,13 C7.52642981,13 7.67576392,12.9431021 7.78951451,12.829887 L8.61435214,12.0089322 C8.84243666,11.7819213 8.84243666,11.4149882 8.61435214,11.1879773 L8.18734992,10.7629851 C7.06851076,9.64883212 7.05334402,7.82287526 8.15351641,6.69014336 C8.18793325,6.65530794 11.6879515,3.17292662 11.6879515,3.17292662 C12.238621,2.62426868 12.9712915,2.32236166 13.7506289,2.32236166 C14.5287996,2.32236166 15.2608867,2.62426868 15.8115563,3.17176544 C15.8121396,3.17176544 15.8121396,3.17292662 15.8121396,3.17292662 C16.9513955,4.30798089 16.9513955,6.14380778 15.8127229,7.27770086 L15.6318887,7.4571033 C15.9153901,8.21129025 16.0828077,9.01947211 16.083391,9.87003707 C16.083391,10.0244741 16.0623909,10.1725247 16.0524742,10.3234782 L17.4623982,8.91961056 C19.5134089,6.87883525 19.5116588,3.56946988 17.4623982,1.53101693 Z" id="Shape"></path>
                <path d="M17.4623982,1.53101693 C16.4695597,0.543432629 15.1512195,0 13.7500455,0 C12.3482882,0 11.029948,0.543432629 10.0382762,1.53101693 C10.0382762,1.53101693 6.72609231,4.82586754 6.53650799,5.01339824 C5.54833619,5.99866018 5.00233335,7.31311688 5,8.71756509 C5.00233335,10.1109821 5.54833619,11.4202135 6.53767467,12.4048948 L6.96467689,12.829887 C7.07842748,12.9431021 7.22776159,13 7.3770957,13 C7.52642981,13 7.67576392,12.9431021 7.78951451,12.829887 L8.61435214,12.0089322 C8.84243666,11.7819213 8.84243666,11.4149882 8.61435214,11.1879773 L8.18734992,10.7629851 C7.06851076,9.64883212 7.05334402,7.82287526 8.15351641,6.69014336 C8.18793325,6.65530794 11.6879515,3.17292662 11.6879515,3.17292662 C12.238621,2.62426868 12.9712915,2.32236166 13.7506289,2.32236166 C14.5287996,2.32236166 15.2608867,2.62426868 15.8115563,3.17176544 C15.8121396,3.17176544 15.8121396,3.17292662 15.8121396,3.17292662 C16.9513955,4.30798089 16.9513955,6.14380778 15.8127229,7.27770086 L15.6318887,7.4571033 C15.9153901,8.21129025 16.0828077,9.01947211 16.083391,9.87003707 C16.083391,10.0244741 16.0623909,10.1725247 16.0524742,10.3234782 L17.4623982,8.91961056 C19.5134089,6.87883525 19.5116588,3.56946988 17.4623982,1.53101693 Z" id="Shape"></path>
                <path d="M1.53760182,16.4689831 C2.53044032,17.4565674 3.84878051,18 5.24995447,18 C6.65171176,18 7.97005196,17.4565674 8.96172378,16.4689831 C8.96172378,16.4689831 12.2739077,13.1741325 12.463492,12.9866018 C13.4516638,12.0013398 13.9976667,10.6868831 14,9.28243491 C13.9976667,7.88901791 13.4516638,6.57978652 12.4623253,5.59510518 L12.0353231,5.17011299 C11.9215725,5.05689786 11.7722384,5 11.6229043,5 C11.4735702,5 11.3242361,5.05689786 11.2104855,5.17011299 L10.3856479,5.99106784 C10.1575633,6.21807869 10.1575633,6.58501184 10.3856479,6.81202269 L10.8126501,7.23701487 C11.9314892,8.35116788 11.946656,10.1771247 10.8464836,11.3098566 C10.8120667,11.3446921 7.31204853,14.8270734 7.31204853,14.8270734 C6.761379,15.3757313 6.02870852,15.6776383 5.24937113,15.6776383 C4.47120042,15.6776383 3.73911328,15.3757313 3.18844374,14.8282346 L3.18786041,14.8270734 C2.04860448,13.6920191 2.04860448,11.8561922 3.18727707,10.7222991 L3.36811135,10.5428967 C3.08460987,9.78870975 2.91719233,8.98052789 2.916609,8.12996293 C2.916609,7.97552588 2.93760911,7.82747532 2.94752582,7.67652182 L1.53760182,9.08038944 C-0.513408851,11.1211648 -0.511658842,14.4305301 1.53760182,16.4689831 Z" id="Shape"></path>
            </g>
        </g>
    </g>
</svg>