<?xml version="1.0" encoding="UTF-8"?>
<svg width="15px" height="15px" viewBox="0 0 15 15" version="1.1" xmlns="http://www.w3.org/2000/svg" xmlns:xlink="http://www.w3.org/1999/xlink">
    <!-- Generator: Sketch 49.1 (51147) - http://www.bohemiancoding.com/sketch -->
    <title>location</title>
    <desc>Created with Sketch.</desc>
    <defs></defs>
    <g id="event-pages" stroke="none" stroke-width="1" fill="none" fill-rule="evenodd">
        <g id="Homepage" transform="translate(-600.000000, -310.000000)">
            <g id="locay" transform="translate(600.000000, 310.000000)">
                <g id="location">
                    <path d="M9.74601064,5.25797872 C9.74601064,4.0212766 8.74069149,3.01196809 7.5,3.01196809 C6.25930851,3.01196809 5.25398936,4.01728723 5.25398936,5.25797872 C5.25398936,6.49867021 6.26329787,7.5 7.5,7.5 C8.73670213,7.5 9.74601064,6.49468085 9.74601064,5.25797872 L9.74601064,5.25797872 Z M6.75398936,5.25797872 C6.75398936,4.84707447 7.08909574,4.50797872 7.50398936,4.50797872 C7.91489362,4.50797872 8.25398936,4.84308511 8.25398936,5.25797872 C8.25398936,5.66888298 7.91888298,6.00797872 7.50398936,6.00797872 C7.08909574,6.00398936 6.75398936,5.66888298 6.75398936,5.25797872 L6.75398936,5.25797872 Z" id="Shape" class="SVGFill"></path>
                    <path d="M8.44148936,13.4840426 C9.57047872,11.9840426 12.7380319,7.57180851 12.7380319,5.25398936 C12.7380319,2.36569149 10.3882979,0.0159574468 7.5,0.0159574468 C4.61170213,0.0159574468 2.26196809,2.36569149 2.26196809,5.25398936 C2.26196809,7.57180851 5.42553191,11.9800532 6.55851064,13.4840426 L0.0199468085,13.4840426 L0.0199468085,14.9800532 L14.9800532,14.9800532 L14.9800532,13.4840426 L8.44148936,13.4840426 L8.44148936,13.4840426 Z M7.5,1.51595745 C9.5625,1.51595745 11.2420213,3.19547872 11.2420213,5.25797872 C11.2420213,6.69414894 9.14361702,10.0212766 7.5,12.2473404 C5.85638298,10.0212766 3.75797872,6.69414894 3.75797872,5.25797872 C3.76196809,3.19547872 5.4375,1.51595745 7.5,1.51595745 L7.5,1.51595745 Z" id="Shape" class="SVGFill"></path>
                </g>
            </g>
        </g>
    </g>
</svg>