<?xml version="1.0" encoding="UTF-8"?>
<svg width="19px" height="18px" viewBox="0 0 19 18" version="1.1" xmlns="http://www.w3.org/2000/svg" xmlns:xlink="http://www.w3.org/1999/xlink">
    <!-- Generator: Sketch 48.2 (47327) - http://www.bohemiancoding.com/sketch -->
    <title>Shape</title>
    <desc>Created with Sketch.</desc>
    <defs></defs>
    <g id="Desktop" stroke="none" stroke-width="1" fill="none" fill-rule="evenodd" transform="translate(-399.000000, -26.000000)">
        <g id="switcher" transform="translate(384.000000, 20.000000)" class="SVGFill" fill-rule="nonzero">
            <g id="Group-10">
                <g id="cupid">
                    <g id="noun_1568164_cc" transform="translate(15.000000, 6.000000)">
                        <path d="M3.89152639,4.5520006 C4.2900057,4.43620068 4.71710036,4.3883258 5.17281037,4.40878515 L5.27958403,4.40878515 C5.37931064,4.40878515 5.51085579,4.42576641 5.67486014,4.45993353 C5.99518114,4.53501934 6.30461122,4.64754576 6.60379103,4.79751279 C7.02383863,4.99535469 7.40096321,5.2748294 7.73559188,5.6363461 C7.84236554,5.71143191 7.99184867,5.88533638 8.18425482,6.15805951 L8.23764165,6.08645178 C8.48663784,5.74539443 8.70018517,5.49640415 8.87828364,5.33968554 C9.64705403,4.69194255 10.5294316,4.38157422 11.526057,4.40878515 C11.7039419,4.40878515 11.8820404,4.42576641 12.0599253,4.45993353 C12.2950409,4.50760381 12.5404068,4.57573344 12.7966636,4.66452702 L7.59678611,9.63614887 L8.00231249,10.0248765 L14.6116024,3.68247826 L14.5155061,2.36285024 C14.5155061,2.28796902 14.5402776,2.22290829 14.5904612,2.16848642 L16.5337419,0.0920670713 C16.5764513,0.0304844303 16.6405155,0 16.7259345,0 C16.8040928,0 16.868157,0.0204593492 16.9179135,0.0613780475 C16.9676701,0.109048331 17.0033325,0.173904468 17.0246872,0.255741865 L17.1207835,1.62651826 L18.7330658,1.62651826 C18.8112242,1.62651826 18.8718716,1.6502511 18.9147946,1.69812598 C18.9715982,1.75275244 19,1.81740399 19,1.8924898 C19,1.96737102 18.9713847,2.03243175 18.9147946,2.08685362 L16.8645267,4.05095114 C16.7934154,4.1055776 16.7291377,4.13278853 16.6725476,4.13278853 L14.8892139,4.13278853 L13.757413,5.22736371 C14.0563793,5.47962749 14.3267302,5.78999581 14.5688929,6.1582641 C15.0600518,6.89500526 15.3163086,7.65527468 15.3378768,8.43948153 C15.401941,9.18276969 15.2345199,9.96718113 14.8358271,10.7923067 C14.5866173,11.3447091 14.2308475,11.8766522 13.7680904,12.3881359 C13.5188807,12.7224417 13.2056067,13.0565429 12.8286957,13.390644 L12.4334196,13.769142 C11.3942983,14.6763095 10.2088971,15.5116648 8.87807009,16.2754123 L8.42940715,16.5311541 C8.27287696,16.6199477 8.11271646,16.6299728 7.94892566,16.5618432 L6.95614412,16.0196704 C6.35799805,15.6446505 5.76369583,15.2456932 5.17281037,14.8227985 L4.39357616,14.2294773 L3.04801443,15.5081867 L3.99830005,16.4902354 C4.04805658,16.5311541 4.07325516,16.5890541 4.07325516,16.6643445 C4.07325516,16.698307 4.05531719,16.7494554 4.01986833,16.8177896 C3.99125299,16.8585037 3.94491322,16.8961489 3.88106257,16.930316 L0.357531618,17.9942022 C0.286206809,18.0077054 0.222356158,17.9976803 0.16533902,17.9635132 C0.0801336357,17.9430538 0.033793865,17.9021351 0.0267468031,17.8407571 C-0.00891560104,17.7656713 -0.00891560104,17.6975416 0.0267468031,17.6361636 L1.37209498,14.2808303 C1.40049678,14.2194523 1.43615918,14.1785336 1.47886865,14.1580742 C1.52862518,14.1171555 1.58927262,14.1034478 1.66038388,14.1171555 C1.73875575,14.1306587 1.79214258,14.1648258 1.82054438,14.2194523 L2.6747337,15.0992043 L3.96690859,13.8614137 C3.49710447,13.4522267 3.05933244,13.0156242 2.65359251,12.5520153 C2.24785258,12.1293252 1.90980716,11.682493 1.63924269,11.2119279 C1.34732349,10.7004442 1.15171414,10.1719792 1.05198754,9.62632838 L0.966568603,9.12507432 C0.938166809,8.72263892 0.938166809,8.33738938 0.966568603,7.96932569 C1.01653868,7.7238135 1.08038933,7.47134513 1.1587612,7.21232977 C1.415018,6.44162609 1.90254655,5.77669724 2.62156041,5.21754323 C3.01961264,4.89633144 3.44329054,4.6745521 3.89152639,4.5520006 Z M1.71334362,14.8942016 L0.752380631,17.3084048 L3.29359386,16.5411792 L1.71334362,14.8942016 Z M16.565774,1.80021813 L16.4908189,0.930695794 L15.1027612,2.45491731 L15.1454707,3.17099453 L16.565774,1.80021813 Z M15.4446505,3.59041119 L16.5442057,3.59041119 L18.0606053,2.15825674 L16.9713004,2.15825674 L15.4446505,3.59041119 Z" id="Shape"></path>
                    </g>
                </g>
            </g>
        </g>
    </g>
</svg>