<?xml version="1.0" encoding="UTF-8"?>
<svg width="62px" height="60px" viewBox="0 0 62 60" version="1.1" xmlns="http://www.w3.org/2000/svg" xmlns:xlink="http://www.w3.org/1999/xlink">
    <!-- Generator: Sketch 48.2 (47327) - http://www.bohemiancoding.com/sketch -->
    <title>pending-verify</title>
    <desc>Created with Sketch.</desc>
    <defs></defs>
    <g id="Account-Not-Found" stroke="none" stroke-width="1" fill="none" fill-rule="evenodd" transform="translate(-553.000000, -442.000000)">
        <g id="pending-verify" transform="translate(553.000000, 442.000000)" class="SVGFill" fill-rule="nonzero">
            <g id="Group">
                <path d="M58.5125,39 C53.8625,34.3043478 46.3708333,34.3043478 41.7208333,39 C37.0708333,43.6956522 37.0708333,51.2608696 41.7208333,55.9565217 C46.3708333,60.6521739 53.8625,60.6521739 58.5125,55.9565217 C63.1625,51.2608696 63.1625,43.6956522 58.5125,39 Z M47.9208333,53.8695652 L42.4958333,48.3913043 L44.3041667,46.5652174 L47.9208333,50.2173913 L55.9291667,42.1304348 L57.7375,43.9565217 L47.9208333,53.8695652 Z" id="Shape"></path>
                <ellipse id="Oval" cx="27.2541667" cy="13.5652174" rx="12.9166667" ry="13.0434783"></ellipse>
                <path d="M39.9125,37.173913 C41.9791667,35.0869565 44.6916667,33.6521739 47.6625,33.1304348 C46.1125,31.4347826 44.4333333,29.8695652 42.625,28.6956522 C42.3666667,28.5652174 41.9791667,28.3043478 41.9791667,28.3043478 C38.75,32.8695652 33.325,35.8695652 27.2541667,35.8695652 C21.1833333,35.8695652 15.8875,32.8695652 12.5291667,28.3043478 C12.5291667,28.3043478 12.1416667,28.5652174 12.0125,28.6956522 C4.77916667,33.5217391 0,41.8695652 0,51.3913043 L0,54.2608696 L37.3291667,54.2608696 C34.4875,48.7826087 35.2625,41.7391304 39.9125,37.173913 Z" id="Shape"></path>
            </g>
        </g>
    </g>
</svg>