<?xml version="1.0" encoding="UTF-8"?>
<svg width="17px" height="16px" viewBox="0 0 17 16" version="1.1" xmlns="http://www.w3.org/2000/svg" xmlns:xlink="http://www.w3.org/1999/xlink">
    <!-- Generator: Sketch 48.2 (47327) - http://www.bohemiancoding.com/sketch -->
    <title>phone</title>
    <desc>Created with Sketch.</desc>
    <defs></defs>
    <g id="Edit-Profile-Add-Social-(Desktop)" stroke="none" stroke-width="1" fill="none" fill-rule="evenodd" transform="translate(-314.000000, -533.000000)">
        <g id="Group-13" transform="translate(74.000000, 417.000000)" class="SVGFill" class="SVGFill">
            <g id="Group-10" transform="translate(224.000000, 103.000000)">
                <g id="Group" transform="translate(0.000000, 1.000000)">
                    <g id="phone" transform="translate(16.000000, 12.000000)">
                        <path d="M10.953108,4 L15,0.751669038 L14.5223555,0.371675605 C13.9051254,-0.123891868 12.8266085,-0.123891868 12.2093784,0.371675605 L10.4798255,1.7603152 C10.17012,2.0089745 10,2.33906096 10,2.68928532 C10,3.03950969 10.17012,3.36959615 10.4776445,3.61737988 L10.953108,4 Z" id="Shape"></path>
                        <path d="M3.62017027,9.37191983 C3.12595503,8.87602672 2.26238812,8.87602672 1.76817289,9.37191983 L0.383322419,10.7614719 C0.1362148,11.0102946 0,11.340598 0,11.6910525 C0,12.041507 0.1362148,12.3718103 0.385068762,12.6215091 L0.766644837,13 L4,9.75566751 L3.62017027,9.37191983 Z" id="Shape"></path>
                        <path d="M15.9051832,1.35003296 L15.5550064,1 L11.8870531,4.66644693 L12.5300331,5.30817403 C12.6240071,5.40210943 12.6744563,5.52570864 12.6744563,5.65820699 C12.6744563,5.79070534 12.6230179,5.91430455 12.5300331,6.00823995 L7.00436237,11.5316414 C6.81740358,11.7175346 6.49195681,11.7185234 6.30499803,11.5316414 L5.66201808,10.8889255 L2,14.55735 L2.35017677,14.907383 C2.60736875,15.1644693 3.58271986,16 5.37317171,16 C6.97171877,16 9.58320654,15.2959789 12.9405511,11.941002 C19.6404021,5.24192485 16.0644444,1.50922874 15.9051832,1.35003296 Z" id="Shape"></path>
                    </g>
                </g>
            </g>
        </g>
    </g>
</svg>