<?xml version="1.0" encoding="UTF-8"?>
<svg width="23px" height="18px" viewBox="0 0 23 18" version="1.1" xmlns="http://www.w3.org/2000/svg" xmlns:xlink="http://www.w3.org/1999/xlink">
    <!-- Generator: Sketch 48.2 (47327) - http://www.bohemiancoding.com/sketch -->
    <title>Group 3</title>
    <desc>Created with Sketch.</desc>
    <defs></defs>
    <g id="Desktop" stroke="none" stroke-width="1" fill="none" fill-rule="evenodd" transform="translate(-525.000000, -27.000000)">
        <g id="switcher" transform="translate(384.000000, 20.000000)" class="SVGFill SVGStroke" stroke-width="0.2">
            <g id="Group-3" transform="translate(142.000000, 8.000000)">
                <path d="M10.9636551,8.89432764 L10.5502047,9.34651634 C8.97384293,11.0866728 6.33432295,14 0.656270508,14 C0.294009188,14 0,13.6864078 0,13.3000175 C0,12.9136272 0.294009188,12.600035 0.656270508,12.600035 C5.75155474,12.600035 8.0576893,10.0828979 9.58286196,8.40014 C8.0576893,6.71738207 5.75155474,4.20024499 0.656270508,4.20024499 C0.294009188,4.20024499 0,3.88665283 0,3.50026249 C0,3.11387215 0.294009188,2.80027999 0.656270508,2.80027999 C6.27788368,2.80027999 8.91740367,5.65340866 10.5003281,7.39776506 C11.9323104,5.81720457 14.2568205,3.35326617 18.8507141,2.89547761 L17.2559767,1.19452014 C17.0000313,0.921526962 17.0000313,0.477738057 17.2559767,0.204744881 C17.5119222,-0.0682482938 17.9279977,-0.0682482938 18.1839432,0.204744881 L20.8077127,3.00327492 C20.8680896,3.06767331 20.9166536,3.14607135 20.9507797,3.23146921 C21.0164068,3.40366491 21.0164068,3.59686008 20.9507797,3.76765581 C20.9179662,3.85445364 20.8694022,3.93145171 20.8077127,3.9958501 L18.1839432,6.79438014 C18.0553142,6.93157671 17.887309,7.000175 17.7193037,7.000175 C17.5512985,7.000175 17.3832932,6.93157671 17.2546642,6.79578011 C16.9987187,6.52278693 16.9987187,6.07899803 17.2546642,5.80600485 L18.6603956,4.30664233 C14.6991468,4.79243019 12.7382106,6.94277643 11.392856,8.42673933 L10.9636551,8.89432764 Z" id="Path"></path>
                <path d="M20.950459,13.2294303 C20.9167841,13.3014555 20.8688621,13.368679 20.8092835,13.4238984 L18.2202012,15.8235382 C18.0932728,15.9411794 17.9274886,16 17.7617044,16 C17.5959203,16 17.4301361,15.9411794 17.3032076,15.8247387 C17.0506458,15.5906567 17.0506458,15.2101235 17.3032076,14.9760416 L18.86391,13.5295353 C16.2838941,13.3074576 14.1015012,12.4995749 12.2338391,11.0626719 C11.9592591,10.8501976 11.9204034,10.4720652 12.1496518,10.2175762 C12.3789002,9.96308708 12.7868846,9.92707448 13.0614646,10.1395488 C14.6726794,11.3807833 16.4950099,12.0794278 18.6903547,12.308708 L17.3045028,11.0242585 C17.051941,10.7901766 17.051941,10.4096434 17.3045028,10.1755614 C17.5570646,9.94147952 17.9676394,9.94147952 18.2202012,10.1755614 L20.8092835,12.5752013 C20.8688621,12.6304206 20.9167841,12.6976442 20.950459,12.7708698 C21.0165137,12.9173211 21.0165137,13.082979 20.950459,13.2294303 Z" id="Path"></path>
            </g>
        </g>
    </g>
</svg>