<?xml version="1.0" encoding="UTF-8"?>
<svg width="20px" height="19px" viewBox="0 0 20 19" version="1.1" xmlns="http://www.w3.org/2000/svg" xmlns:xlink="http://www.w3.org/1999/xlink">
    <!-- Generator: Sketch 48.2 (47327) - http://www.bohemiancoding.com/sketch -->
    <title>thumbs-down</title>
    <desc>Created with Sketch.</desc>
    <defs></defs>
    <g id="Desktop" stroke="none" stroke-width="1" fill="none" fill-rule="evenodd" transform="translate(-396.000000, -610.000000)">
        <g id="Group-4" transform="translate(406.000000, 619.000000) scale(-1, -1) translate(-406.000000, -619.000000) translate(381.000000, 594.000000)" class="SVGFill">
            <g id="thumbs-down" transform="translate(15.000000, 15.000000)">
                <g id="Group">
                    <polygon id="Shape" points="5.31105808 17.3804426 5.31105808 8.01403951 0 8.01403951 0 17.3804426"></polygon>
                    <path d="M5.93583541,8.47442804 L5.93583541,16.8841624 L7.75877879,17.5599011 C8.53952506,17.8408312 9.42485167,18.1487908 10.2840332,18.3787635 C11.1427639,18.6091793 11.9758004,18.7629376 12.8615778,18.8644092 C13.7464536,18.9672101 14.6831688,19.0181674 15.3597855,18.9933534 C16.036853,18.9676532 16.453822,18.8648523 16.8189516,18.6858369 C17.1827289,18.5068215 17.4951176,18.2502624 17.7299725,17.9688892 C17.963926,17.687516 18.1203457,17.3804426 18.1983301,17.1247697 C18.2767654,16.8690968 18.2767654,16.6639381 18.3020089,16.4592225 C18.3286048,16.2540638 18.3804442,16.0497913 18.4327343,15.896033 C18.4845737,15.7427179 18.5368639,15.6403601 18.6143976,15.4870449 L18.8753976,14.9495557 C18.9533821,14.7700973 19.0052215,14.616339 19.0318174,14.4120665 C19.0570609,14.2073509 19.0570609,13.9507918 19.0570609,13.7212622 C19.0570609,13.4908463 19.0570609,13.2856876 19.1093511,13.056158 C19.1611904,12.8257422 19.2657708,12.5696262 19.344206,12.3644675 L19.5258693,11.8526785 C19.5786102,11.6993633 19.6304496,11.5460482 19.6304496,11.3922899 C19.6304496,11.2385317 19.5786102,11.0852165 19.5258693,10.9310152 C19.4735791,10.7777 19.4217397,10.6243849 19.4217397,10.4963269 C19.4217397,10.3682688 19.4735791,10.2659111 19.5520144,10.0864526 C19.6304496,9.90788031 19.7336776,9.65132116 19.7868693,9.3703911 C19.8387087,9.08857483 19.8387087,8.78150143 19.7868693,8.47442804 C19.7336776,8.16824086 19.6304496,7.85983815 19.4478848,7.57890809 C19.2657708,7.29753492 19.0052215,7.04186198 18.7194287,6.86240351 C18.4327343,6.68294503 18.1203457,6.58058723 17.4951176,6.52918678 C16.8703402,6.47822944 15.933625,6.47822944 15.334542,6.45252921 C14.7359097,6.42727209 14.4753605,6.37631475 14.3455366,6.32491429 C14.215262,6.27351384 14.215262,6.2225565 14.3189408,6.0178409 C14.4235211,5.81312531 14.6313294,5.45509457 14.7877491,5.0709205 C14.9437181,4.68674643 15.0487492,4.27775834 15.1005886,3.81648359 C15.152428,3.35609506 15.152428,2.84430607 15.1005886,2.38391754 C15.0487492,1.92308589 14.9437181,1.5136547 14.7359097,1.15562397 C14.5271999,0.797593227 14.215262,0.490076728 13.7721479,0.285361132 C13.3294846,0.0810886448 12.7569974,-0.0217122601 12.3147849,0.00443107349 C11.8721216,0.0296881924 11.5592822,0.183003335 11.3514738,0.490076728 C11.1427639,0.797593227 11.0390852,1.25798176 10.9349556,1.84687143 C10.8299245,2.43531799 10.7266965,3.15137946 10.3097275,3.97068495 C9.89320928,4.78910422 9.16475317,5.7103244 8.53636962,6.40157187 C7.90843685,7.09281933 7.38192897,7.55320786 6.9645092,7.86116747 C6.54844175,8.16824086 6.24191319,8.3211129 5.93583541,8.47442804 Z" id="Shape"></path>
                </g>
            </g>
        </g>
    </g>
</svg>