<?xml version="1.0" encoding="UTF-8"?>
<svg width="15px" height="12px" viewBox="0 0 15 12" version="1.1" xmlns="http://www.w3.org/2000/svg" xmlns:xlink="http://www.w3.org/1999/xlink">
    <!-- Generator: Sketch 48.2 (47327) - http://www.bohemiancoding.com/sketch -->
    <title>twitter-white</title>
    <desc>Created with Sketch.</desc>
    <defs></defs>
    <g id="Desktop-HD" stroke="none" stroke-width="1" fill="none" fill-rule="evenodd" transform="translate(-534.000000, -331.000000)">
        <g id="Twitter" transform="translate(434.000000, 316.000000)" fill="#FEFEFE">
            <path d="M114.428286,16.4073478 C113.897772,16.6458669 113.326514,16.8071432 112.728094,16.8801419 C113.339246,16.5083577 113.808645,15.9209725 114.029339,15.2206939 C113.457233,15.564467 112.824011,15.8140208 112.149197,15.947286 C111.610195,15.3649937 110.841162,15 109.988944,15 C108.354112,15 107.0291,16.3436861 107.0291,18.0005877 C107.0291,18.2365604 107.055413,18.4648937 107.105494,18.6847387 C104.645606,18.5599618 102.464981,17.3656684 101.005006,15.5508858 C100.750359,15.9922736 100.604362,16.5083577 100.604362,17.0583947 C100.604362,18.0990511 101.127236,19.0174771 101.920885,19.5547818 C101.435359,19.5386542 100.979541,19.4036914 100.580595,19.1796022 L100.580595,19.2169504 C100.580595,20.6709835 101.600031,21.8822532 102.954751,22.1589694 C102.706046,22.227724 102.445458,22.2642234 102.174683,22.2642234 C101.984547,22.2642234 101.798655,22.2455493 101.618705,22.2098987 C101.994733,23.4016456 103.088016,24.2691423 104.38332,24.2929093 C103.369826,25.0975931 102.094045,25.5780266 100.707069,25.5780266 C100.467701,25.5780266 100.231729,25.5635966 100,25.5364343 C101.309733,26.3869545 102.865625,26.8835157 104.537805,26.8835157 C109.983002,26.8835157 112.959823,22.3117575 112.959823,18.3477561 C112.959823,18.2178863 112.956427,18.0888653 112.951334,17.9606931 C113.530231,17.5371306 114.031886,17.0100118 114.428286,16.4081966 L114.428286,16.4073478 Z" id="twitter-white"></path>
        </g>
    </g>
</svg>