<?xml version="1.0" encoding="UTF-8"?>
<svg width="17px" height="14px" viewBox="0 0 17 14" version="1.1" xmlns="http://www.w3.org/2000/svg" xmlns:xlink="http://www.w3.org/1999/xlink">
    <!-- Generator: Sketch 48.2 (47327) - http://www.bohemiancoding.com/sketch -->
    <title>twitter</title>
    <desc>Created with Sketch.</desc>
    <defs></defs>
    <g id="Social-Profile-Connected" stroke="none" stroke-width="1" fill="none" fill-rule="evenodd" transform="translate(-49.000000, -64.000000)">
        <g id="Twitter" transform="translate(29.000000, 50.000000)" fill="#3A405B">
            <g id="Field">
                <path d="M36.9993,15.6586 C36.3743,15.9396 35.7013,16.1296 34.9963,16.2156 C35.7163,15.7776 36.2693,15.0856 36.5293,14.2606 C35.8553,14.6656 35.1093,14.9596 34.3153,15.1176 C33.6793,14.4306 32.7733,14.0016 31.7693,14.0016 C29.8433,14.0016 28.2823,15.5836 28.2823,17.5356 C28.2823,17.8126 28.3133,18.0816 28.3723,18.3406 C25.4743,18.1936 22.9053,16.7866 21.1853,14.6486 C20.8853,15.1706 20.7133,15.7776 20.7133,16.4256 C20.7133,17.6516 21.3293,18.7336 22.2643,19.3666 C21.6923,19.3476 21.1553,19.1886 20.6853,18.9246 L20.6853,18.9696 C20.6853,20.6816 21.8863,22.1086 23.4823,22.4346 C23.1893,22.5146 22.8823,22.5586 22.5633,22.5586 C22.3393,22.5586 22.1203,22.5366 21.9073,22.4946 C22.3513,23.8986 23.6393,24.9206 25.1653,24.9486 C23.9713,25.8966 22.4683,26.4616 20.8343,26.4616 C20.5523,26.4616 20.2743,26.4456 20.0013,26.4126 C21.5443,27.4146 23.3773,28.0006 25.3473,28.0006 C31.7623,28.0006 35.2693,22.6156 35.2693,17.9456 C35.2693,17.7916 35.2653,17.6406 35.2593,17.4886 C35.9403,16.9906 36.5323,16.3676 36.9993,15.6596 L36.9993,15.6586 L36.9993,15.6586 Z" id="twitter"></path>
            </g>
        </g>
    </g>
</svg>