<?xml version="1.0" encoding="UTF-8"?>
<svg width="97px" height="151px" viewBox="0 0 97 151" version="1.1" xmlns="http://www.w3.org/2000/svg" xmlns:xlink="http://www.w3.org/1999/xlink">
    <!-- Generator: Sketch 48.2 (47327) - http://www.bohemiancoding.com/sketch -->
    <title>Knowledge</title>
    <desc>Created with Sketch.</desc>
    <defs></defs>
    <g id="Homepage" stroke="none" stroke-width="1" fill="none" fill-rule="evenodd" transform="translate(-672.000000, -162.000000)">
        <g id="Knowledge" transform="translate(672.000000, 162.000000)" fill-rule="nonzero">
            <path d="M49,4.76252116 C27.3751343,4.76252116 17.562051,15.3691617 10.3062971,0 C10.3062971,0 -9.45131216,34.6764005 11.9770341,53.4421941 C22.235991,62.4264373 38.0812534,65.0399766 49,57.8816573 L49,4.76252116 Z" id="Shape" fill="#00E2AA"></path>
            <path d="M48.0006443,4.76252116 C69.6252135,4.76252116 79.4381624,15.3691617 86.6938168,0 C86.6938168,0 106.451155,34.6764005 85.0231027,53.4421941 C74.7642864,62.4264373 58.9185969,65.0399766 48.0006443,57.8816573 L48,57.8816573 L48.0006443,4.76252116 Z" id="Shape" fill="#0ACA9B"></path>
            <path d="M0,80.3783749 C0,106.62656 46.3612667,149.493385 48,151 L48,32 C21.4863987,32.0264885 0,53.6753623 0,80.3783749 Z" id="Shape" fill="#00E2AA"></path>
            <path d="M97,80.3615504 C97,53.6530375 75.0842972,32 48.0496792,32 C48.033991,32 48.0169955,32.0012916 48,32.0012916 L48,150.956084 C48.0307226,150.983855 48.0496792,151 48.0496792,151 C48.0496792,151 97,107.072001 97,80.3615504 Z" id="Shape" fill="#0ACA9B"></path>
            <circle id="Oval" fill="#FFFFFF" cx="23.5" cy="28.5" r="15.5"></circle>
            <circle id="Oval" fill="#3E4D75" cx="24" cy="28" r="10"></circle>
            <circle id="Oval" fill="#FFFFFF" cx="18.5" cy="24.5" r="4.5"></circle>
            <circle id="Oval" fill="#FFFFFF" cx="74.5" cy="27.5" r="15.5"></circle>
            <circle id="Oval" fill="#353859" cx="74" cy="28" r="10"></circle>
            <circle id="Oval" fill="#F8FBFA" cx="68.5" cy="23.5" r="4.5"></circle>
            <path d="M41.10316,23.9476802 L46.789305,32.2622573 C47.1219923,32.7492596 47.5603989,32.9947351 48,33 L48,21 C43.0879352,21.0039487 40.4300207,22.9638039 41.10316,23.9476802 Z" id="Shape" fill="#FFBE69"></path>
            <path d="M49.2356685,32.2621974 L54.9109216,23.9476645 C55.5827009,22.9624772 52.3740161,21 48.0131137,21 C48.0089412,21 48.0047686,21 48,21 L48,33 C48.4476541,33.0045429 48.8965004,32.7597269 49.2356685,32.2621974 Z" id="Shape" fill="#E9A66B"></path>
        </g>
    </g>
</svg>